<svg width="52" height="58" viewBox="0 0 52 58" fill="none" xmlns="http://www.w3.org/2000/svg">
<path d="M36.6755 44.6643C36.3467 44.8419 35.0376 45.4995 34.483 45.7879C35.0693 45.3958 37.8403 44.0321 36.6755 44.6643ZM41.0006 38.6741C41.4151 38.408 41.8718 38.1221 42.2962 37.8613C41.0162 38.5617 39.3648 39.5756 38.1775 40.2908C37.9879 40.4046 38.4453 40.0533 37.9989 40.327C37.5495 40.6036 37.6798 40.6144 37.0227 41.0367C36.3017 41.4933 32.9039 43.6081 31.7349 44.3689C27.3643 47.1883 22.9911 50.1369 18.2529 52.7228C23.0311 49.9345 18.2089 52.6685 16.7848 53.4007C16.6253 53.4852 16.5699 53.5613 15.9166 53.9209C15.2124 54.2352 14.2275 55.0448 10.8038 55.8725C8.89064 56.2408 7.78435 55.8152 7.29581 55.5756C6.99991 55.4306 6.70709 55.2871 6.2667 54.8926C6.04423 54.6789 5.81236 54.4518 5.5424 53.9405C5.27898 53.4403 5.12678 52.7246 5.21346 52.0619C5.69917 49.8163 6.72708 49.2507 8.13998 47.92C4.10106 51.6019 8.08643 47.4138 10.9632 45.6448C11.4701 45.2588 15.6037 42.6122 17.4323 41.5063C18.0555 41.121 18.9743 40.4721 19.7986 39.9724C20.3727 39.6245 20.8281 39.3992 21.6699 38.8923C25.6191 36.5155 29.5067 34.2243 33.3964 31.8569C31.2315 33.4131 35.2361 30.8286 35.4046 30.725C36.3615 30.1978 32.183 32.7962 33.859 31.8023C36.1602 30.3788 38.4633 28.9221 40.6644 27.4176C38.8572 28.6181 42.9487 25.6685 43.6697 25.1338C43.537 25.1722 44.2303 24.6504 45.1069 23.8978C45.3425 23.694 45.5766 23.4835 45.7875 23.2816C46.0248 23.0543 46.2496 22.8176 46.3991 22.6382C46.5804 22.4371 46.6608 22.2198 46.5812 22.4585C46.5557 22.552 46.4656 22.9511 46.633 23.4449C46.7931 23.9333 47.1407 24.2539 47.3091 24.355C47.5971 24.5327 47.7389 24.4977 47.6567 24.4925C47.5686 24.4837 47.3901 24.4924 47.1382 24.5407C46.6718 24.6268 46.06 24.8317 45.554 25.0328C44.4827 25.4598 43.5964 25.9309 43.2508 26.1283C42.9198 26.3652 45.1585 25.0656 40.0264 28.0738C39.4697 28.4158 39.651 28.2411 39.3592 28.4308C39.1664 28.5556 38.2414 29.3414 37.0646 30.0165C36.6358 30.281 39.1798 28.3703 33.5044 32.3333C35.855 30.8535 25.7262 37.9956 23.8471 39.3461C24.2296 39.096 24.6134 38.8449 24.9979 38.5932C23.1343 39.8738 22.8212 40.1717 22.4096 40.4666C20.7199 41.6779 18.3988 43.2745 16.7848 44.4041C14.9125 45.7059 14.9702 45.8107 12.7049 47.24C13.2601 46.9101 13.7834 46.5933 14.3419 46.2474C12.803 47.2688 11.2154 48.2896 9.52251 49.2276C13.3028 46.8553 8.7069 49.7375 8.32446 49.8576C7.7565 50.1408 8.54401 49.701 7.60527 50.1524C7.55732 50.1748 7.57357 50.1832 7.42309 50.2661C7.28575 50.3375 6.93597 50.5326 6.08481 50.8201C4.85982 51.1899 3.59782 51.4976 2.02309 50.7458C0.48462 49.8672 0.268082 48.8281 0.0905998 48.1778C-0.0697205 47.4786 -0.0200988 46.5799 0.261167 45.7832C0.298951 45.6787 0.235589 45.8009 0.351827 45.4676C0.410016 45.3083 0.528817 45.0142 0.749902 44.6265C0.92994 44.3062 1.24367 43.8287 1.686 43.3012C7.1655 37.9266 1.65678 43.109 1.47813 43.6254C1.3439 43.8007 1.73355 43.3844 1.70086 43.4909C1.6933 43.5354 1.56038 43.7094 1.25485 44.1593C1.09441 44.4075 0.94243 44.6104 0.648507 45.2034C0.517468 45.479 0.3831 45.8023 0.278954 46.2106C0.154927 46.7046 0.0665787 47.3731 0.241032 48.1431C0.375157 48.7327 0.680844 49.4567 1.33587 50.0561C1.98632 50.6777 2.96105 50.9571 3.4907 50.9973C2.87901 50.9657 1.74773 50.5512 1.17246 49.8882C0.588246 49.2668 0.367375 48.6155 0.262513 48.1381C0.0534752 47.0345 0.289491 46.4549 0.365773 46.1623C0.456376 45.8911 0.517049 45.7699 0.568192 45.6385C0.682595 44.7352 3.36719 41.8681 3.4861 41.8555C4.83834 40.6064 3.5835 41.6405 3.8451 41.3931C4.01568 41.1591 7.40303 38.6094 8.04041 37.9745C9.75582 36.9963 7.19133 38.6563 4.60105 40.8326C4.23537 41.1477 7.14308 38.8986 7.31324 38.8091C11.0762 36.1207 8.90399 37.5097 9.67931 36.8531C10.0863 36.5143 11.7171 35.5356 10.195 36.4086C13.6405 34.0925 11.5887 35.5523 11.8151 35.4111C12.1653 35.1972 13.3622 34.3772 13.5125 34.2876C13.7387 34.1505 12.9889 34.6845 13.8749 34.1331C14.0219 34.0413 15.4104 33.0647 13.5524 34.2114C16.0277 32.6408 15.7633 32.7455 16.6758 32.3235C18.2416 31.0624 17.9755 31.6858 18.6511 31.2842C20.4537 30.2184 19.8284 30.3802 19.9199 30.3126C20.5308 29.8621 25.4872 26.9435 26.6848 26.1935C26.2784 26.5981 22.7888 28.5419 22.0417 29.0284C19.5407 30.648 25.6659 26.9158 23.9056 28.1832C24.6571 27.6741 25.408 27.1663 26.157 26.6599C27.6323 25.9012 25.6509 27.1523 29.4434 24.8193C30.0157 24.3627 26.7551 26.457 27.3812 25.9914C27.7521 25.7167 29.9588 24.3753 29.9903 24.3282C30.0207 24.2775 28.0343 25.5143 28.3291 25.2859C28.9814 24.7924 36.2777 20.4594 30.7787 23.8613C32.3314 22.9186 33.195 22.6101 34.5135 21.7309C35.341 21.1679 30.4229 23.9352 37.6263 19.4959C37.8409 19.4704 34.7665 21.3208 34.6986 21.3646C34.5934 21.4411 35.2448 21.2714 35.343 21.2219C35.7281 21.0561 42.9873 16.3015 44.3021 15.2968C44.027 15.4381 44.9204 14.7848 45.8776 13.9399C46.313 13.5593 46.8323 13.0279 46.9749 12.7967C47.0014 12.7603 47.0034 12.7349 46.9622 12.8478C46.9299 12.9682 46.8474 13.1562 46.9183 13.6311C46.9823 14.0755 47.3003 14.5207 47.4681 14.6604C47.6602 14.8377 47.7885 14.8906 47.8355 14.9125C48.0016 14.9738 47.9372 14.9439 47.9127 14.9543C47.8898 14.9583 47.9245 14.9792 47.9356 15.0004C47.946 15.0217 47.9172 15.0366 47.9297 15.0426C48.1411 14.7855 44.4193 15.988 43.0424 16.8701C41.396 17.7863 41.627 17.7495 41.5391 17.795C40.8237 18.2183 41.3745 17.8405 40.9337 18.1064C40.2487 18.475 35.692 21.4823 35.4792 21.6661C35.4137 21.7144 36.1961 21.2605 35.2106 21.9541C35.0367 22.082 35.1046 21.9115 32.2113 24.0032C28.7308 26.5371 34.6996 22.3603 33.2943 23.4665C30.9809 24.9542 31.1169 25.0159 30.5062 25.4409C30.2942 25.5884 28.664 26.6368 26.9639 27.8822C28.1773 26.9793 29.3911 26.0778 30.6033 25.1862C29.3904 26.0336 27.0713 27.7467 26.0646 28.4544C25.5747 28.7985 25.9269 28.4378 24.8741 29.2062C24.6464 29.3727 23.8928 30.1764 26.5868 28.1022C26.8486 28.0027 25.516 28.913 24.9157 29.3752C24.8254 29.4448 24.5312 29.8111 23.7112 30.3115C23.505 30.4318 25.3611 28.6683 20.2163 32.6809C20.0506 32.8093 20.67 32.4231 20.5086 32.5496C20.3996 32.6365 19.032 33.5833 18.8776 33.6978C18.7256 33.8132 19.4199 33.3846 19.2399 33.5231C18.3158 34.2347 16.9814 34.9255 18.9266 33.5846C18.2593 34.0243 17.6058 34.4497 16.9208 34.8893C17.7048 34.5293 15.9275 35.625 14.978 36.2482C8.84009 40.1167 13.0053 37.6234 11.9699 38.3243C10.1473 39.401 11.6507 38.4528 8.58745 39.903C8.46016 39.9618 9.33636 39.6317 9.32638 39.6512C9.3251 39.6571 9.26932 39.6874 9.13099 39.7509C8.99064 39.8139 8.78647 39.9073 8.37044 40.0605C7.96153 40.1971 7.49907 40.4001 6.46299 40.523C6.33155 40.5353 6.2286 40.5433 6.04682 40.5475C5.86301 40.5509 5.66629 40.545 5.45356 40.5221C5.01171 40.4633 4.5957 40.4048 3.91402 40.0305C2.51054 39.2809 2.03673 37.5409 2.05958 36.775C2.06585 37.1541 2.19217 38.1224 2.69624 38.8625C3.1991 39.7309 4.42959 40.3606 5.04364 40.439C5.40402 40.513 5.73837 40.5327 6.04933 40.5255C6.32649 40.5178 6.5234 40.4957 6.74626 40.4627C7.17882 40.3975 7.59381 40.2839 7.8818 40.1931C7.79859 40.2029 7.6806 40.2262 7.5346 40.256C7.37332 40.2901 7.13724 40.3413 6.88703 40.3808C6.62145 40.421 6.38324 40.4548 5.98251 40.4613C5.55265 40.4643 5.04728 40.4188 4.49229 40.2166C3.84555 39.9961 3.12245 39.4407 2.74247 38.8375C2.37557 38.2837 2.2123 37.7138 2.13991 37.2353C2.03448 36.5155 2.09435 35.9995 2.13732 35.6333C2.16457 35.4205 2.19297 35.2782 2.20406 35.2249C2.4616 34.1117 2.7557 33.6367 2.92414 33.2963C3.10531 32.9611 3.2263 32.7731 3.36415 32.5604C3.62755 32.1924 4.00408 31.4787 5.6091 29.8688C5.86971 29.6063 6.58407 29.0067 7.17543 28.5053C8.4799 27.4298 7.58609 28.0753 6.37196 29.1112C5.17116 30.0876 3.65501 31.8953 3.57487 32.0228C3.51382 32.0317 5.0321 30.0847 6.71108 28.7345C8.35554 27.3422 10.1363 26.1715 10.2367 26.1066C11.2415 25.458 7.23098 28.283 8.02667 27.8196C8.25914 27.3519 17.9829 21.3478 20.0131 20.4637C22.3302 19.2708 23.4484 18.9267 23.3665 18.7231C24.1147 18.5777 24.6208 18.1586 24.9169 18.0103C28.4917 16.2307 28.4976 16.2408 31.5443 14.7118C32.2092 14.3788 32.8117 14.1533 33.0456 14.0256C33.181 13.9514 32.8934 14.0168 33.5603 13.6635C34.5022 13.1781 40.1253 10.4247 40.5304 10.2254C40.9541 10.051 38.2117 11.451 38.7254 11.2531C40.7164 10.2357 42.5999 9.23248 44.4442 8.11025C45.2086 7.63475 44.8385 7.91781 45.1491 7.71878C45.1908 7.69149 45.8898 7.22599 46.3597 6.82142C46.4814 6.71771 46.5792 6.62659 46.6497 6.5553C46.7323 6.47293 46.7892 6.4057 46.8096 6.37651C46.8548 6.30851 46.7925 6.38633 46.799 6.37144C46.8041 6.34959 46.8401 6.30353 46.7687 6.38275C46.6833 6.47362 46.5217 6.63046 46.2083 6.87622C45.6503 7.3187 44.6591 7.95668 43.7673 8.47643C41.9239 9.55004 40.2816 10.3747 41.4007 9.73901C41.8646 9.47803 43.3985 8.72834 43.1115 8.7474C44.1109 8.17611 45.0214 7.6298 45.8504 7.02855C46.0271 6.90003 46.2366 6.73759 46.3865 6.60893C46.5296 6.48814 46.6674 6.35235 46.7135 6.29705C46.7731 6.25433 46.6738 6.23025 46.5385 6.79031C46.4638 7.11142 46.5137 7.68839 46.7218 8.07651C46.9101 8.4553 47.1629 8.67185 47.2959 8.76363C47.7523 9.04787 47.811 8.94121 47.6548 8.95589C47.5105 8.95294 47.2321 8.98137 46.9329 9.03979C46.3383 9.15384 45.6301 9.36491 44.9006 9.62035C43.4472 10.1326 42.011 10.7588 40.513 11.4526C37.5808 12.8183 34.629 14.3621 31.695 15.925C36.1611 13.4593 41.4941 10.6028 46.0834 9.1724C46.4088 9.07751 47.0483 8.92282 47.4504 8.88691C47.8704 8.86004 47.6998 8.86566 47.7393 8.83055C47.7889 8.83786 47.6948 8.82014 47.5482 8.82888C47.4158 8.83463 47.2098 8.85829 46.9815 8.90062C46.5792 8.97283 46.0241 9.12135 45.5147 9.28557C44.4337 9.63349 43.3292 10.0804 42.1679 10.5879C39.9131 11.578 37.652 12.7159 35.7054 13.6988C35.5786 13.763 36.016 13.4738 35.5395 13.7105C34.6591 14.1423 31.8612 15.7337 31.3654 15.9779C31.283 16.0152 32.8684 15.0823 32.3538 15.305C31.0289 15.8786 30.8408 16.2828 29.7514 16.8695C28.9122 17.3173 23.2052 20.2965 21.8169 21.1347C20.3539 22.0283 26.0268 18.9039 25.636 19.194C21.8308 21.3502 17.9073 23.4144 14.1265 25.2903C14.0614 25.3224 14.6545 25.093 13.8286 25.5069C12.3269 26.2508 11.9322 26.3381 11.1645 26.6708C10.4166 27.0235 7.42573 28.2019 6.88442 28.2745C6.81645 28.2934 7.51988 27.9967 7.57997 27.9707C8.91223 27.4845 9.38757 27.3711 9.50445 27.3315C9.93716 27.1605 10.3805 26.9294 10.7426 26.7732C11.3589 26.5063 11.7744 26.3578 12.5604 25.992C13.1229 25.728 12.5495 25.9245 13.0961 25.667C13.3253 25.5656 15.4826 24.6712 15.6092 24.4215C15.6273 24.389 14.0128 25.2205 11.6423 26.2942C10.437 26.8324 9.06551 27.4316 7.47423 27.9506C6.61627 28.2184 5.79079 28.4684 4.66196 28.5629C4.34283 28.5855 4.01776 28.5879 3.67439 28.5532C3.29414 28.516 2.7681 28.4101 2.27418 28.1601C1.75104 27.9155 1.10266 27.3422 0.793338 26.6971C0.503947 26.1279 0.412375 25.5449 0.413131 25.0405C0.587619 22.6792 1.59465 21.9366 2.27356 21.0863C2.98566 20.326 3.64247 19.7817 4.26311 19.2892C5.42607 18.3798 6.30408 17.8129 6.62783 17.5863C5.20655 18.5116 3.7518 19.4918 2.3467 20.9072C5.20475 18.1169 8.67726 16.1964 9.00564 16.1645C14.069 13.1955 19.2476 10.7408 24.3914 8.27422C26.9573 7.04777 29.5367 5.83322 32.0492 4.57794C33.2864 3.95642 34.5399 3.314 35.6585 2.64892C35.8987 2.50609 36.2233 2.30186 36.4244 2.16188C36.6438 2.01548 36.87 1.81935 36.8394 1.84472C36.8241 1.86286 36.7825 1.90797 36.7152 2.02059C36.6199 2.18894 36.4018 2.59617 36.4797 3.25831C36.545 3.93611 37.0691 4.53936 37.3661 4.70909C37.5375 4.81945 37.5885 4.83393 37.6445 4.85961C37.6985 4.88214 37.7386 4.89533 37.7668 4.90378C37.9193 4.93817 37.6554 4.88601 37.3521 4.89229C36.7767 4.89003 36.0751 4.97576 35.3863 5.11129C33.4874 5.54565 34.518 5.07185 31.3092 6.19536C32.1624 5.92803 33.002 5.69211 33.8256 5.50199C32.2084 5.75267 24.864 8.87935 23.7115 9.52168C23.5607 9.59826 23.3957 9.79126 21.5852 10.6796C19.9777 11.4719 19.6769 11.5307 18.8103 11.9389C18.0709 12.2886 17.2744 12.7046 17.0485 12.8103C16.8798 12.8889 16.7907 12.8765 16.3878 13.0639C15.1131 13.6552 16.1946 13.288 14.8661 13.7497C15.1682 13.5971 15.4732 13.4423 15.7806 13.2857C14.2476 14.0092 12.0835 14.9428 14.3494 13.8282C14.7423 13.6327 14.4272 13.8383 14.715 13.6997C25.9586 8.16897 16.9919 12.5142 12.9949 14.4854C11.9865 14.9659 5.92118 17.4718 5.24602 17.2738C5.04733 17.2905 5.31133 17.2353 5.38377 17.1991C5.44296 17.152 5.38246 17.1985 4.35107 17.2162C4.31158 17.2153 4.18453 17.2176 3.98244 17.2047C3.87871 17.1976 3.76984 17.1884 3.61499 17.1654C3.4479 17.1402 3.25766 17.1017 3.04549 17.0349C2.67056 16.9253 1.9702 16.5929 1.52243 15.9663C1.04474 15.3048 0.933807 14.6383 0.929535 14.0405C0.977036 11.7899 2.42313 10.4329 3.07692 9.76692C3.80082 9.10211 4.05224 8.91292 3.18393 9.7439C2.95822 10.0838 1.13605 11.3147 1.00085 14.0405C1.0101 14.542 1.05326 14.9731 1.36188 15.5825C1.65137 16.1403 2.1534 16.5681 2.60724 16.7868C3.02895 16.9933 3.37192 17.063 3.67097 17.1068C3.91727 17.1408 4.11864 17.1473 4.27173 17.1482C3.83844 17.1094 3.22351 17.1208 2.36843 16.6063C1.94006 16.3375 1.53941 15.8926 1.3198 15.3856C1.09655 14.8609 1.05796 14.4826 1.0516 14.0405C1.11872 11.737 2.56907 10.3704 3.48887 9.45891C4.47009 8.54889 5.27221 8.00872 5.47219 7.87065C7.67389 6.39554 1.37159 10.8947 6.28424 7.52636C10.1299 5.30359 6.47327 7.2883 7.93132 6.41163C8.75192 5.87524 13.2137 3.89218 13.023 3.83669C14.5125 3.13878 13.6725 3.60798 13.8583 3.52913C13.9842 3.47414 17.1784 1.99573 17.4669 1.74116C17.4986 1.72266 17.4424 1.85763 17.4816 1.83705C17.4889 1.83534 17.5528 1.78489 17.5124 1.82043C17.5039 1.8466 17.4072 1.85307 17.2137 2.28844C17.1206 2.4442 17.0058 3.20566 17.318 3.68973C17.581 4.1237 17.791 4.21514 17.9357 4.30334C18.186 4.42295 18.1559 4.38396 18.1355 4.38747C18.1045 4.38229 18.0461 4.37463 17.9554 4.36779C17.7684 4.35438 17.5972 4.35096 17.3521 4.35171C16.8087 4.35369 16.3832 4.40851 16.3388 4.4157C16.276 4.42313 16.8861 4.43915 16.6381 4.4752C16.4962 4.49355 15.8134 4.5554 15.2062 4.73015C14.5955 4.89432 14.0691 5.16863 14.0203 5.20611C13.9497 5.25968 14.5195 4.95087 15.1277 4.79006C15.7327 4.61825 16.355 4.57267 16.1157 4.63891C14.7189 4.72855 12.992 5.85979 12.5059 6.59642C12.6191 6.40469 13.5462 5.60492 13.9308 5.43839C13.8679 5.53037 13.2998 5.90788 12.8939 6.30498C12.4838 6.69416 12.1905 7.04237 12.4586 6.65992C12.1092 7.13702 12.3886 6.84582 12.2146 7.13169C12.1629 7.19742 11.6815 7.91283 11.6195 8.08101C11.6055 8.09237 12.1252 7.36422 12.0471 7.52937C11.8386 7.7276 10.6694 10.2652 10.6219 10.5656C10.3582 11.1962 11.1542 8.91536 11.2282 8.76901C11.2122 8.70878 10.377 10.5549 10.376 10.6151C10.235 10.6724 11.1324 8.58611 10.9799 8.81143C10.7327 9.29943 10.511 9.81778 10.3046 10.3624C10.6296 9.28573 11.2363 7.87307 12.0202 6.88418C12.7882 5.87421 13.7029 5.32101 14.0824 5.08978C11.5562 6.26625 10.4417 9.75435 10.248 9.63662C10.1583 9.59365 10.6795 8.28392 10.6496 8.33295C10.4617 8.45849 9.80748 10.349 9.79841 10.4379C9.77421 10.4952 9.76111 10.5203 9.7569 10.5189C9.7569 10.5189 9.7569 10.5189 9.7569 10.5189C9.67589 10.4678 10.7256 7.83336 10.8328 7.75628C10.9082 7.52719 10.2014 8.55458 10.1815 8.5533C10.162 8.4856 11.122 6.74123 10.7362 7.29211C10.3023 7.8192 9.59772 9.49163 9.58486 9.56072C9.37844 9.84092 10.6659 6.96202 10.7805 6.93632C10.7774 6.86845 9.90527 8.30648 9.88953 8.36282C9.8459 8.38797 10.388 7.21386 10.6376 6.77244C10.8071 6.4298 10.1841 7.3435 10.285 7.17845C10.3186 7.117 10.7172 6.43488 11.224 5.84578C11.7205 5.24788 12.3285 4.77122 12.3834 4.72732C12.5454 4.58442 11.9747 4.97357 12.0455 4.90372C12.1323 4.78221 12.9254 4.24541 12.8155 4.30676C12.7722 4.32267 11.9408 4.80248 11.2625 5.4861C10.572 6.15291 10.038 6.96616 10.0231 6.94188C9.88695 6.79677 12.6282 3.68962 10.0169 6.54548C9.99238 6.5619 9.53456 7.39438 9.52837 7.42094C9.21198 7.92274 10.5146 5.13726 8.86609 8.5122C10.2935 5.31314 10.7864 5.328 10.3452 5.67882C9.9725 6.06724 9.28597 7.1662 9.49538 6.6784C9.57082 6.24432 11.4063 4.10361 11.4871 4.15904C11.2247 4.27621 10.6182 4.95347 10.4062 5.17217C10.3447 5.2314 10.7045 4.76098 11.0899 4.37163C11.4703 3.97882 11.8632 3.66321 11.6161 3.82029C11.284 3.91004 9.49709 5.98893 9.50512 6.12639C8.90028 7.01063 9.55619 5.87151 9.40783 6.05434C9.27864 6.16273 8.49634 7.60427 8.49639 7.64769C8.42518 7.69821 9.42271 5.69457 9.74592 5.32092C9.93889 5.01279 9.11897 6.09639 9.26065 5.88817C9.96973 4.50847 12.699 2.48136 10.1839 4.5043C10.0254 4.62973 9.29432 5.58544 9.28515 5.62087C8.80221 6.19102 10.0892 4.38644 10.4005 4.09883C10.8084 3.51988 8.63519 5.96962 10.439 3.926C8.96572 5.35646 8.37547 6.38444 7.53162 8.46537C8.60571 5.52223 10.3275 3.81936 10.6677 3.46695C11.116 3.12683 9.6056 3.71911 7.92052 6.95646C9.01425 4.93457 8.90191 5.12099 9.31321 4.54387C9.44843 4.36578 10.1274 3.6353 10.7103 3.16077C11.2862 2.68544 11.6863 2.38361 10.9242 2.76164C10.6873 2.82047 9.17453 4.41884 9.60617 3.8801C13.6909 0.447655 9.55573 3.66941 9.63958 3.7656C9.39988 3.67942 13.2134 0.209981 17.3521 0.547631C17.756 0.551816 18.0195 0.554586 18.4964 0.606996C18.6789 0.630742 18.9804 0.666448 19.347 0.794149C19.4663 0.839799 19.9565 0.999902 20.3673 1.47127C20.5585 1.65668 20.901 2.28843 20.8929 2.79559C20.903 3.05386 20.8618 3.29686 20.806 3.48444C20.7647 3.62408 20.7145 3.7446 20.6624 3.84934C20.4534 4.26083 20.2149 4.47405 20.1219 4.56674C19.9986 4.68332 19.884 4.77482 19.7716 4.85822C19.5947 4.98827 19.439 5.08706 19.272 5.18747C19.0074 5.34567 18.717 5.49914 18.4949 5.61235C17.5504 6.08853 16.8395 6.40021 16.5006 6.5629C14.5609 7.46785 12.9533 8.35657 12.5528 8.55535C11.2281 9.2017 12.2975 8.60727 11.9915 8.73053C11.6456 8.82857 8.10181 10.9076 7.99846 11.0435C7.34407 11.4412 7.94903 10.9504 7.88205 10.9906C7.58451 11.1665 6.79234 11.6735 6.04657 12.3455C5.27074 13.0008 4.78691 13.8941 4.86405 14.0405C4.86274 14.0583 4.87588 13.9894 4.79919 13.8145C4.72618 13.6425 4.54953 13.4515 4.41404 13.3707C4.13456 13.2172 4.18517 13.2881 4.24513 13.2811C4.24893 13.2717 4.15151 13.2446 4.23313 13.2545C4.27089 13.2619 4.37705 13.2913 4.51855 13.3967C4.65824 13.4984 4.78614 13.6651 4.8457 13.7898C4.95683 14.0424 4.92783 14.0305 4.94865 14.0379C4.95456 14.0371 4.96273 14.0403 4.96653 14.0075C4.9618 13.9726 4.99519 13.8972 4.83576 13.6119C4.63697 13.2781 4.30856 13.1441 4.26175 13.1336C4.18463 13.1114 4.23151 13.1271 4.28759 13.1297C4.42844 13.1383 4.57353 13.1391 4.69693 13.1432C4.94849 13.1478 4.9877 13.1934 5.01376 13.194C14.4775 10.2501 23.6348 3.34874 34.9714 0.750487C34.6378 0.454013 27.6081 2.89731 27.5316 3.04077C26.9028 3.32624 32.4437 0.505343 37.3521 0.409968C37.6225 0.410556 37.8698 0.420173 38.1048 0.440833C38.2261 0.451755 38.3243 0.462562 38.4615 0.482856C38.6401 0.509665 38.8176 0.545157 39.0037 0.598262C39.192 0.653026 39.3774 0.718165 39.6038 0.836158C39.9577 1.02085 40.4174 1.36611 40.7016 1.95117C41.2933 3.21088 40.6127 4.24395 40.4735 4.44736C40.2803 4.72974 40.1008 4.91298 39.9331 5.07402C39.7703 5.22676 39.6927 5.28878 39.5846 5.37688C39.3838 5.53807 39.2125 5.65888 39.0997 5.7361C39.4022 5.52462 39.6361 5.35678 39.955 5.06114C40.1427 4.88195 40.3295 4.68533 40.5175 4.40123C40.7133 4.11795 41.2261 3.16006 40.7722 2.06549C40.5568 1.54349 40.1812 1.17921 39.8676 0.969581C39.706 0.859878 39.5556 0.78625 39.4906 0.755298C39.4066 0.715449 39.3258 0.681861 39.2476 0.652587C38.9403 0.537677 38.6478 0.480002 38.409 0.444289C38.0667 0.392333 37.7259 0.370875 37.3521 0.364741C37.2372 0.362578 37.1219 0.362254 37.0062 0.363665C37.1155 0.353904 37.231 0.346183 37.3521 0.34114C37.7382 0.331847 38.053 0.325782 38.5657 0.399642C38.732 0.425979 38.9051 0.461318 39.0955 0.517875C39.1907 0.546302 39.2904 0.580249 39.3962 0.623191C39.5197 0.676967 39.5525 0.681258 39.8033 0.826072C40.2035 1.0578 40.7645 1.57583 40.9652 2.34568C41.1659 3.09203 40.9723 3.75407 40.7774 4.14699C40.6622 4.37659 40.6063 4.4515 40.5391 4.55163C40.473 4.64661 40.4066 4.73178 40.3401 4.81076C40.2074 4.9682 40.0731 5.103 39.9382 5.22696C39.749 5.40004 39.5515 5.55751 39.3382 5.71415C38.9372 6.00626 38.5886 6.22401 38.1992 6.4578C36.733 7.32433 35.2321 8.05111 34.0675 8.67147C33.2667 9.09468 34.8405 8.36227 34.7969 8.38578C33.947 8.87932 32.4412 9.57472 33.5023 8.97226C31.3312 10.1182 31.6243 9.88686 29.918 10.7043C29.8301 10.7462 30.577 10.4478 29.2568 11.1062C28.6138 11.4265 25.3062 13.0079 24.8698 13.2719C24.696 13.3772 26.48 12.7532 26.6044 12.4943C30.2727 10.8365 27.7237 11.8678 29.147 11.1909C29.3701 11.0819 28.8926 11.4363 32.4532 9.6533C31.8458 10.1599 27.6892 12.0007 26.998 12.3546C25.5706 13.0863 31.5784 10.323 32.6213 9.64352C32.1802 10.0157 33.019 9.47616 34.3947 8.79053C35.849 8.05807 35.2608 8.40444 36.0353 8.00064C38.2405 6.79581 37.2405 7.28902 39.1934 6.14432C38.4506 6.51211 38.6882 6.3405 39.4259 5.81693C39.6443 5.65315 39.8274 5.52161 40.1364 5.23405C40.3116 5.06614 40.495 4.87625 40.6887 4.59761C40.8275 4.3926 41.4374 3.50125 41.1166 2.2868C40.7963 1.01614 39.5496 0.48257 39.418 0.440841C39.0645 0.298465 38.7637 0.233714 38.4711 0.186065C38.0998 0.12408 37.736 0.097434 37.3521 0.0863103C36.4924 0.0575131 35.7315 0.128417 35.2823 0.177146C35.9323 0.0753925 36.644 0.00287897 37.3521 -5.82801e-05C37.7183 -0.00106533 38.0582 0.012187 38.4063 0.0544729C38.5806 0.0748739 38.926 0.130164 39.2296 0.227443C39.3893 0.277762 39.5605 0.342044 39.7476 0.435264C40.0123 0.566531 40.4305 0.825698 40.7722 1.26596C41.5695 2.20289 41.4092 3.68809 41.0788 4.25064C40.8944 4.62123 40.8355 4.67913 40.7277 4.83319C40.6287 4.96643 40.5312 5.08052 40.4347 5.18464C40.3393 5.28761 40.239 5.38579 40.1501 5.46796C40.0837 5.52942 40.0172 5.58824 39.9502 5.64541C39.8161 5.75964 39.6798 5.86745 39.539 5.97309C38.555 6.69837 37.6141 7.21543 36.7687 7.68737C36.9091 7.62771 37.047 7.56872 37.1823 7.51038C36.5774 7.84359 35.9682 8.16275 35.3626 8.47274C35.4548 8.40941 35.546 8.34642 35.636 8.28379C32.559 9.96252 31.7678 10.1941 31.5254 10.3187C28.2841 11.8755 24.5646 13.6271 21.3495 15.2109C20.8709 15.4525 21.2242 15.353 17.7178 17.0544C16.6009 17.6047 17.6082 17.0023 16.3664 17.6611C14.9077 18.6474 14.8617 18.5063 14.4094 18.7501C13.0891 19.4703 12.3604 19.9532 12.2281 20.0294C10.6683 20.936 8.38385 22.3477 7.00427 23.5126C6.97842 23.5347 7.75288 22.9751 6.83012 23.7146C6.78337 23.7534 6.67564 23.8367 6.53301 23.9516C6.38179 24.0743 6.17543 24.2494 5.98611 24.4268C5.81102 24.5857 5.57026 24.8463 5.45363 25.0005C5.29838 25.1886 5.30973 25.3085 5.3138 25.0405C5.30937 24.9711 5.29506 24.789 5.18543 24.5506C5.08226 24.3029 4.80293 23.9858 4.56924 23.8566C4.12545 23.6212 4.10094 23.7256 4.23096 23.708C4.51815 23.7088 5.12828 23.5739 5.70193 23.3779C5.2878 23.4955 4.93615 23.5774 4.60142 23.6261C4.3352 23.6798 3.98305 23.6214 4.27463 23.665C4.17297 23.6374 4.11734 23.6483 4.22398 23.6473C4.35171 23.6439 4.55167 23.6226 4.8954 23.5448C5.51018 23.4075 6.40851 23.0967 7.22528 22.7631C8.86456 22.0911 10.1508 21.4272 9.28109 21.7942C8.25327 22.2443 5.77645 23.3618 5.50107 23.2357C7.63201 23.0211 20.5101 15.9988 21.4774 15.4797C21.6166 15.4099 20.7988 15.9131 20.9911 15.8158C21.1357 15.7439 24.0577 14.1347 24.4564 13.9391C24.6933 13.8229 23.4141 14.5571 23.5285 14.5156C23.6257 14.4767 27.2945 12.4998 27.4809 12.3287C26.5861 12.8419 24.0519 14.2002 25.3512 13.4298C25.5186 13.3308 26.4224 12.8852 26.6252 12.7655C28.5097 11.6495 22.7746 14.7976 21.89 15.2807C25.4495 13.2508 31.0656 10.2508 35.3679 8.03853C37.1392 7.20719 32.8274 9.41498 34.8035 8.46339C38.9461 6.5025 35.8681 7.84835 35.995 7.77617C36.9819 7.20203 40.6547 5.83564 40.6091 5.6434C42.211 5.02403 41.6618 5.21681 44.052 4.37457C43.732 4.45922 43.3584 4.57031 43.0751 4.65544C43.7604 4.37977 44.6257 4.07979 45.7313 3.85672C46.8717 3.74877 47.9979 3.14072 50.304 4.4664C50.823 4.84019 51.351 5.411 51.5973 6.25875C51.8568 7.10781 51.6325 7.99237 51.4842 8.3323C51.3171 8.756 51.0909 9.09092 50.9269 9.30465C50.781 9.49279 50.6411 9.64627 50.5127 9.77765C50.2517 10.0432 50.0511 10.2066 49.9587 10.2785C49.8554 10.359 49.8168 10.3826 49.8606 10.3399C49.9845 10.2168 50.1372 10.0708 50.3537 9.83771C50.5693 9.59759 50.7359 9.42089 51.0163 8.986C51.2744 8.51761 51.6102 8.06984 51.5681 6.90419C51.4696 5.75056 50.7837 5.00177 50.2109 4.59927C49.7372 4.26334 49.2534 4.08787 48.8345 3.98763C48.4736 3.90234 48.1904 3.87304 47.9307 3.85657C47.3908 3.82967 47.151 3.85814 47.0648 3.86251C46.5638 3.92685 45.1782 4.18268 41.3367 5.55139C40.595 5.94509 42.0963 5.3192 43.4016 4.88918C44.8052 4.42964 45.9023 4.16792 44.0627 4.75581C44.2721 4.68738 44.5326 4.60636 44.8298 4.52344C45.1661 4.42958 45.5584 4.33084 45.9699 4.25068C46.3857 4.16968 46.9456 4.08236 47.5275 4.07343C47.8761 4.06812 48.2381 4.08789 48.6224 4.16061C49.0397 4.23773 49.6029 4.41622 50.0946 4.76544C50.6594 5.15437 51.3252 5.90899 51.3799 7.01637C51.3766 8.14467 51.061 8.52171 50.7708 9.00834C50.5188 9.37527 50.2866 9.62669 50.0117 9.89754C49.7718 10.1301 49.5643 10.3086 49.3193 10.5072C48.4008 11.2397 47.5578 11.7644 46.7219 12.2752C45.1642 13.2135 43.8569 13.9048 43.4644 14.1435C43.3123 14.2311 44.1093 13.9883 41.87 15.0766C40.8218 15.5819 43.3213 14.2756 42.8328 14.4912C41.3076 15.3166 21.4365 24.9505 18.0213 27.1923C17.7918 27.3248 17.8566 27.2342 17.6249 27.3691C16.9005 27.7811 14.462 29.3346 13.2624 30.1346C15.7737 28.575 10.9778 31.7201 10.002 32.6643C8.42086 34.0335 8.51258 33.9249 7.95743 34.517C7.41727 35.1287 6.97613 35.8889 6.92725 36.3518C6.90756 36.4882 6.90967 36.5709 6.91223 36.5808C6.91326 36.6074 6.92432 36.4917 6.80367 36.2708C6.70313 36.0496 6.32884 35.7542 6.13926 35.7095C5.9591 35.6497 5.90908 35.6687 5.9563 35.6614C6.20553 35.6485 6.98521 35.368 7.609 35.0634C8.91508 34.4402 10.2396 33.6394 11.1301 33.1607C10.9342 33.11 15.369 30.487 17.3186 29.0686C18.8519 27.9816 20.9724 26.2986 18.8872 27.715C21.5162 25.8338 24.2564 23.7816 26.731 21.9822C27.1405 21.6845 26.6062 22.1347 27.3038 21.626C27.3668 21.5797 27.4246 21.4738 28.0222 21.0382C32.9934 17.4439 30.6355 19.2665 31.5883 18.6311C32.1201 18.2823 32.5231 18.0153 32.8142 17.8189C29.8531 19.8638 26.5477 22.2955 25.6568 22.9412C26.4754 22.4771 32.0601 18.3055 33.8033 17.1931C33.8623 17.1544 33.6943 17.3443 33.7538 17.3045C33.7551 17.3037 33.7563 17.3028 33.7576 17.302C34.3844 16.8508 38.5242 14.1684 37.6276 14.6602C37.3999 14.7761 35.4559 15.9974 33.253 17.5166C33.8414 17.0985 33.3566 17.3436 33.46 17.2695C34.7193 16.3539 37.9593 14.3352 39.167 13.6563C39.4317 13.5024 39.3891 13.4758 39.4358 13.4482C40.5611 12.8122 40.1501 13.1886 41.226 12.4525C43.3226 11.4791 37.5159 14.5633 38.0019 14.4676C38.1291 14.4272 39.5358 13.5386 41.5005 12.4982C42.5017 11.9755 43.5947 11.4308 44.8967 10.9629C46.1799 10.5798 47.5161 9.9407 49.6486 10.682C50.242 10.955 50.8231 11.2725 51.2758 12.2157C51.4722 12.6508 51.5283 13.1481 51.5029 13.5081C51.4836 13.8292 51.4172 14.1076 51.3355 14.3517C51.1496 14.8764 50.9931 15.1107 50.8384 15.3623C50.6854 15.602 50.5067 15.8367 50.378 15.9972C49.9023 16.5871 49.5384 16.9368 49.5636 16.9471C49.5108 16.9785 49.3633 17.1017 49.0261 17.3791C48.2716 18.0777 45.0158 20.4608 44.4661 20.8356C44.3711 20.9062 44.4797 20.9808 44.3583 21.0651C44.0748 21.2884 39.9527 23.8607 38.4751 24.8455C39.3267 24.3351 40.1123 23.861 40.9704 23.3326C35.9873 26.4809 36.8037 25.9779 38.4635 25.0012C38.5479 24.949 38.632 24.9021 38.7122 24.8526C40.0076 24.0795 41.6704 23.0428 41.6935 23.0376C41.797 23.0669 33.3929 28.2772 34.9521 27.1748C35.1626 27.0345 39.0995 24.668 37.1273 25.7886C36.7755 25.9917 34.2882 27.537 34.1443 27.6119C33.2355 28.1015 38.6752 24.6782 37.9474 25.0188C36.6813 25.9001 34.9443 26.9116 33.4228 27.8572C32.7387 28.2824 32.5983 28.4389 32.5136 28.4915C31.2387 29.2801 31.9253 28.79 31.4965 29.0506C31.2693 29.1894 28.8192 30.8248 29.1973 30.3761C20.9799 35.4949 26.9654 31.8806 32.064 28.7989C30.4867 29.832 27.3143 31.6995 25.9101 32.5679C25.4067 32.8791 25.7387 32.7519 24.8919 33.2796C23.1261 34.3534 14.785 39.4394 12.7278 40.8981C14.0181 39.9972 13.5921 40.2003 12.5968 40.883C11.623 41.5581 12.4942 41.0704 12.3096 41.2093C12.0971 41.32 7.56531 44.5851 7.03393 45.2014C10.1315 42.5956 9.34033 43.0987 6.73982 45.3204C7.09598 44.9672 7.44253 44.6439 7.81155 44.3135C7.26783 44.7763 6.46871 45.448 5.78808 46.1619C5.4736 46.488 5.14983 46.8864 5.00665 47.1224C4.80767 47.4141 4.92347 47.4916 4.85478 47.0784C4.83788 47.0029 4.76893 46.8235 4.63288 46.6666C4.49836 46.5041 4.30289 46.3819 4.1776 46.3343C3.92296 46.2456 3.94365 46.2845 3.96526 46.2713C3.98798 46.2678 3.94531 46.2537 3.95564 46.238C3.96142 46.2212 4.04038 46.2182 4.01511 46.2128C3.69931 46.2258 4.62243 46.1259 5.48056 45.7075C6.37801 45.3106 7.13458 44.8829 7.22297 44.8248C7.32076 44.759 6.02384 45.3977 6.48259 45.1266C6.57008 45.08 7.85692 44.4732 9.08139 43.6797C9.52584 43.3935 9.22711 43.5158 9.33869 43.4421C10.2895 42.8035 9.76661 43.2622 11.5027 42.094C12.7598 41.2367 13.6496 40.5145 15.4195 39.299C9.61052 43.2077 14.4733 39.9139 16.8394 38.162C17.2256 37.8768 16.8215 38.0514 19.1436 36.4306C14.3875 40.0857 20.5814 35.5129 21.8628 34.5735C21.9335 34.5228 21.9951 34.5587 22.6251 34.1014C22.6778 34.063 22.5775 34.0813 23.1576 33.655C28.6877 29.6026 25.1695 32.218 26.2494 31.4889C26.7049 31.1797 29.3923 29.1793 30.1339 28.6616C30.3036 28.5423 30.2493 28.6355 30.9056 28.1745C32.0816 27.3492 33.1002 26.5952 33.8863 26.0635C33.9863 25.9987 33.9912 26.071 35.5062 25.0505C35.926 24.7693 36.3816 24.4466 35.774 24.8133C33.7217 26.0438 30.1157 28.6943 27.9205 30.1894C25.9065 31.5446 32.1428 27.1049 32.4847 26.9035C32.6045 26.8208 31.4005 27.6906 32.6476 26.844C33.7474 26.0981 35.6301 24.6846 37.3413 23.6586C37.4617 23.5815 38.872 22.8534 38.8182 22.8967C38.74 22.9375 36.7139 24.2115 37.0245 24.0596C37.0722 24.0304 38.3371 23.2501 38.551 23.1532C38.7833 23.0458 39.4958 22.9436 39.7761 22.7921C40.5091 22.3956 40.0099 22.606 40.4992 22.3384C41.4337 21.7368 45.4502 20.0868 45.6906 20.0667C45.3286 20.1594 44.9613 20.2729 44.5857 20.4046C44.2512 20.5218 43.9275 20.6465 43.5883 20.7869C45.4104 20.0206 46.1354 19.9369 46.3074 19.8754C46.4769 19.8295 46.1351 19.8785 46.4713 19.8075C46.8336 19.7369 46.9672 19.7412 47.2098 19.7412C47.5206 19.7648 47.849 19.6594 48.9962 19.9659C49.0804 19.9971 49.4448 20.0881 49.9385 20.4109C50.2918 20.6462 50.7399 21.0348 51.0296 21.6587C51.3543 22.2869 51.3255 23.2384 51.1908 23.6703C50.8677 24.7897 50.3972 25.2994 49.9838 25.829C49.1523 26.8088 48.4749 27.368 48.507 27.3709C48.7985 27.1003 49.0224 26.8804 49.2015 26.6998C49.4035 26.4967 49.5709 26.3193 49.6914 26.189C49.935 25.9247 50.0385 25.8064 50.0863 25.7643C50.1803 25.68 50.0309 25.9021 50.0798 25.8443C50.4676 25.3115 51.0679 24.773 51.3249 23.154C51.4823 21.7904 50.5623 20.7211 49.9683 20.3662C49.0299 19.7728 48.4325 19.7851 48.244 19.7357C48.0187 19.7047 48.0344 19.7002 48.1823 19.7055C48.4156 19.6884 49.4837 19.905 50.0186 20.2907C50.2631 20.4459 50.429 20.5948 50.4631 20.6195C50.4964 20.6489 50.4046 20.5329 50.0961 20.3097C50.076 20.2955 50.0555 20.2812 50.0344 20.267C49.6681 20.0097 49.0758 19.7784 48.5814 19.7026C48.1531 19.631 47.7898 19.6394 47.6607 19.6372C47.2168 19.6355 47.0529 19.6442 46.9006 19.6426C46.75 19.644 46.6278 19.6449 46.3949 19.6891C45.309 19.9273 46.5974 19.7473 46.5091 19.7788C45.4571 19.9345 42.5805 21.0806 44.3496 20.2658C43.2528 20.6491 43.1324 20.8516 42.3201 21.1807C40.6654 21.899 43.0208 20.7273 43.8027 20.4242C44.0342 20.3248 44.2481 20.2383 44.4493 20.1617C44.6798 20.0744 44.8995 19.9976 45.107 19.9308C45.5244 19.7979 45.8841 19.6994 46.3541 19.6105C47.1886 19.5318 48.2087 19.1075 50.094 20.1776C50.7872 20.6009 51.6169 21.665 51.5685 22.9166C51.536 24.0098 51.08 24.7419 50.7645 25.2393C49.7466 26.7214 48.5564 27.7102 48.0821 28.1377C47.8005 28.4309 44.7754 30.4378 44.8922 30.7177C43.7129 31.5195 41.8545 32.504 40.6753 33.2732C39.611 33.9678 40.0229 33.8356 39.9234 33.905C39.7858 34.0025 38.4846 34.8141 38.0645 35.0931C37.5708 35.4226 37.8481 35.3018 37.0489 35.8169C35.054 37.0962 35.0545 36.9539 34.8411 37.0765C32.3897 38.4609 33.5305 37.9597 33.003 38.294C32.509 38.6151 25.5178 42.7018 24.0856 43.612C24.6615 43.2397 25.2569 42.8569 25.833 42.4861C24.7303 43.0603 23.6663 43.8356 23.5835 43.7352C23.4692 44.0451 21.2362 45.2301 20.5678 45.6477C20.3114 45.8071 20.3497 45.8252 20.0316 46.0222C18.7717 46.7946 15.9869 48.5269 15.3377 48.9895C12.5294 50.9186 19.9141 46.2683 20.5507 45.9501C19.3246 46.6434 12.8379 50.9347 15.8936 49.0526C16.3634 48.7624 17.1186 48.1676 17.3933 47.9894C19.1589 46.8463 17.8059 47.7985 17.9525 47.7152C18.1828 47.5837 19.333 46.7714 19.6558 46.5848C19.7652 46.5219 19.1223 47.0029 20.8441 45.9492C20.0447 46.5014 15.1896 49.4983 14.6555 49.9234C14.4894 50.0769 15.721 49.2837 11.9891 51.8625C12.0396 51.841 12.0987 51.8131 12.1426 51.7973C11.8468 52.0292 11.5699 52.2571 11.3415 52.4569C11.1014 52.6654 10.8474 52.9072 10.7063 53.061C10.6189 53.1545 10.547 53.2426 10.5207 53.2795C10.4932 53.3117 10.4974 53.3398 10.5766 53.1567C10.6138 53.0572 10.6569 52.9576 10.6918 52.6903C10.7279 52.4066 10.7012 51.9785 10.5311 51.5755C10.1666 50.7472 9.62984 50.5118 9.44215 50.4243C9.04662 50.2971 9.28893 50.4015 9.60039 50.3274C9.94138 50.2692 10.3481 50.1558 10.8294 49.9869C10.5815 50.1128 9.45807 50.5281 10.933 50.042C11.7964 49.7123 11.1267 49.8825 11.2043 49.8518C11.9579 50.1824 26.8656 40.9283 29.7289 38.9541C30.7008 38.3201 33.4403 36.5002 33.6457 36.3741C34.8898 35.5561 39.5106 32.8181 40.5175 32.3158C41.1249 31.9855 40.518 32.237 41.0598 31.9548C41.5586 31.699 41.0714 32.0196 41.2201 31.9453C41.5609 31.7801 42.4442 31.3 43.8027 30.7304C44.4966 30.4496 45.2956 30.1306 46.3787 29.9209C47.0235 29.823 47.6054 29.6907 48.7597 29.9412C49.2395 30.0499 50.0331 30.3838 50.5968 30.953C51.1713 31.5142 51.5051 32.2006 51.6634 32.8377C52.1409 35.1228 51.1168 36.4178 50.5421 37.2428C49.9084 38.0616 49.2977 38.6069 48.7404 39.0816C47.6232 40.0124 46.7194 40.5875 46.2126 40.9091C46.6426 40.6284 47.6937 39.9448 48.8608 38.9244C49.4733 38.379 50.1039 37.7722 50.6984 36.909C51.2796 36.0659 52.0063 34.5713 51.5661 32.862C51.3566 31.9916 50.7689 31.1183 50.0165 30.6245C49.2453 30.1226 48.7134 30.05 48.3004 29.9828C48.0935 29.9551 47.9174 29.9454 47.7691 29.9424C47.6318 29.94 47.5482 29.9433 47.4694 29.9469C47.3181 29.9546 47.2496 29.9642 47.2714 29.9662C47.2832 29.9673 47.4203 29.9598 47.6484 29.9659C47.8933 29.973 48.3272 29.9982 48.8181 30.1384C49.2554 30.2482 50.0692 30.628 50.5759 31.202C51.0913 31.7557 51.3534 32.3969 51.4735 32.8852C51.5803 33.3123 51.5974 33.6627 51.6039 33.8581C51.6366 34.77 51.129 36.2117 50.4443 37.0988C49.8025 37.9934 49.0603 38.6778 48.5513 39.083C48.4374 39.1502 48.8223 38.8173 46.9969 40.1259C46.3648 40.5745 44.7497 41.6994 43.0544 42.5575C40.6632 44.109 27.9113 50.0068 27.1984 50.5499C27.1717 50.5663 28.9252 49.7228 27.7721 50.3457C26.2413 51.1852 27.5625 50.3016 25.7662 51.2265C25.6649 51.2827 24.2976 51.9968 23.2433 52.7016C23.0042 52.8609 22.7293 53.0622 22.5866 53.184C22.4172 53.3168 22.3319 53.4564 22.4644 53.2707C22.4966 53.22 22.5352 53.1546 22.5819 53.0452C22.6391 52.91 22.6975 52.7206 22.7216 52.4946C22.7823 52.0427 22.6309 51.4705 22.4266 51.1503C21.9672 50.4845 21.8743 50.573 21.8409 50.516C21.5985 50.3522 21.6304 50.381 21.6239 50.3611C21.629 50.3522 21.6164 50.3351 21.6781 50.3519C21.7102 50.3619 21.7653 50.3812 21.868 50.4425C21.9192 50.4735 21.9824 50.5158 22.058 50.5776C22.1345 50.6392 22.2828 50.7781 22.409 50.9546C22.68 51.3004 22.8841 51.9586 22.8312 52.4495C22.8132 52.6969 22.7567 52.9005 22.7005 53.0481C22.6455 53.1892 22.6142 53.2442 22.5795 53.3067C22.4404 53.5285 22.4913 53.4341 22.5864 53.3648C22.6944 53.2754 22.8101 53.1904 22.9522 53.0907C23.2335 52.8952 23.4364 52.7735 23.4296 52.7804C23.4049 52.8042 23.2551 52.9072 23.0558 53.0547C22.8447 53.2078 22.5901 53.4231 22.5457 53.4812C22.5383 53.4894 22.5498 53.484 22.6026 53.4093C22.6571 53.3162 22.7254 53.2652 22.8481 52.8597C22.9574 52.4948 22.9723 51.8515 22.7238 51.3103C22.491 50.7722 22.1029 50.469 21.9962 50.3945C21.6743 50.1788 21.6536 50.2162 21.6733 50.2127C21.6934 50.2185 21.7689 50.2361 21.8447 50.2491C21.9306 50.2643 21.9907 50.2723 22.0042 50.2751C22.0245 50.2791 21.9443 50.2774 21.8411 50.2695C21.641 50.252 21.5956 50.237 21.7297 50.3178C21.7819 50.3541 21.7619 50.3498 21.6854 50.3199C21.6226 50.2936 21.5711 50.3015 21.8273 50.3478C21.9828 50.3739 22.2168 50.401 22.5283 50.4008C22.2812 50.3841 22.0349 50.3486 21.8357 50.3001C21.7799 50.2873 21.7362 50.275 21.7061 50.2648C21.7387 50.271 21.7841 50.2793 21.8379 50.2878C22.8069 50.3988 23.0548 50.39 23.3665 50.3809C24.4801 50.2775 25.7508 49.8355 27.8151 49.2214C28.3676 49.0542 27.4955 49.4475 27.566 49.4256C28.2339 49.2387 28.9793 48.7597 29.9982 48.4332C30.073 48.3971 27.8496 49.5255 31.7896 47.684C31.5124 47.8054 31.2386 47.9235 30.9611 48.0411C31.5015 47.7871 35.4968 45.7365 36.0562 45.4443C37.6669 44.633 36.2997 45.4293 37.9196 44.5881C36.7897 45.0115 41.8567 42.499 41.6564 42.7594C41.9876 42.5652 43.0599 42.0398 44.667 41.6039C45.4853 41.4081 46.415 41.1665 47.7883 41.3599C49.1833 41.4337 50.9538 43.0298 51.2121 44.1823C51.3865 44.672 51.4742 45.1201 51.4948 45.6147C51.5422 46.3939 51.289 47.4392 50.8082 48.202C50.3512 48.9587 49.7632 49.5139 49.27 49.9136C48.2558 50.7195 47.3991 51.1244 47.181 51.2404C46.6212 51.5058 46.7543 51.3626 45.7608 51.7729C45.4796 51.9202 42.5998 53.0463 40.1698 53.6781C39.6906 53.8092 38.6978 53.9723 39.5335 53.6722C40.9806 53.1712 43.9131 52.324 43.8524 52.2365C43.7671 52.2046 39.9137 53.4904 38.9328 53.779C36.6204 54.4844 36.3498 54.6465 36.3751 54.5824C36.4054 54.5267 36.9488 54.2762 36.8936 54.2843C36.7755 54.2894 36.0239 54.5669 35.7705 54.735C35.72 54.7595 35.7109 54.8025 35.8482 54.6257C35.9116 54.5337 36.0016 54.3959 36.0613 54.1335C36.1191 53.8833 36.0935 53.5892 36.0318 53.3979C35.8842 52.9784 35.7777 52.9421 35.7397 52.8882C35.6966 52.8469 35.6943 52.8491 35.6922 52.8478C35.6836 52.8501 35.6757 52.8549 35.6793 52.8703C35.6851 52.8824 35.7093 52.9053 35.7676 52.9844C35.8074 53.0413 35.9641 53.2553 36.0126 53.5916C36.0773 53.9324 35.9345 54.3573 35.8466 54.4743C35.7507 54.6268 35.6917 54.6622 35.6783 54.6692C35.6434 54.6828 35.6967 54.6272 35.6879 54.6214C35.6862 54.6101 35.6452 54.6241 35.6276 54.6229C35.6028 54.6015 35.67 54.6531 35.8367 54.1797C35.9172 53.9254 35.8774 53.5377 35.77 53.3328C35.6543 53.1024 35.5942 53.0803 35.5597 53.0487C35.5048 53.0181 35.5704 53.0862 35.6352 53.1309C35.7574 53.215 35.8077 53.2524 35.6937 53.1983C35.6699 53.1868 35.6448 53.1742 35.6187 53.1605C35.5535 53.1273 35.5035 53.0931 35.5005 53.0893C35.4925 53.1027 35.58 53.0739 35.7362 53.4859C35.7994 53.6703 35.8035 53.9648 35.7383 54.1603C35.673 54.3635 35.6115 54.4336 35.5744 54.4851C35.506 54.565 35.5588 54.5102 35.6247 54.4763C35.9524 54.2847 36.5229 54.0842 36.5708 54.0619C38.2875 53.3704 35.7061 54.138 35.4568 54.3312C35.4139 54.3511 35.4495 54.3046 35.5399 54.2364C35.6362 54.1644 35.7496 54.0967 35.6876 54.1257C35.4501 54.2374 35.3326 54.336 35.3522 54.3183C35.3611 54.3084 35.4108 54.2508 35.4522 54.1546C35.5018 54.0441 35.5287 53.8895 35.5226 53.7665C35.4587 53.2925 35.3959 53.3407 35.422 53.296C35.4342 53.2701 35.4624 53.2586 35.4522 53.2123C35.4507 53.1666 35.3758 53.1156 35.5779 53.2339C35.6219 53.2581 35.671 53.285 35.7266 53.3146C36.7183 53.7885 35.8795 53.4846 35.5322 53.3162C35.4498 53.2779 35.4241 53.2641 35.4271 53.2677C35.4324 53.2721 35.4551 53.2895 35.5247 53.3296C35.8737 53.5614 37.05 53.9946 37.2811 54.0705C37.3518 54.0927 36.3327 53.8768 35.4605 53.4452C35.3478 53.3908 35.286 53.3505 35.274 53.3484C35.272 53.3524 35.2887 53.3686 35.3255 53.4359C35.3668 53.5106 35.4161 53.647 35.4148 53.8038C35.3997 54.1553 35.2547 54.241 35.2619 54.2334C35.2521 54.2306 35.3139 54.1685 35.3657 54.1269C35.634 53.9185 35.9289 53.7698 35.8679 53.7731C35.6771 53.8641 35.5359 53.9388 35.3919 54.0296C35.2719 54.1001 35.1617 54.2157 35.2142 54.1606C35.2345 54.1351 35.3172 54.0045 35.3137 53.8041C35.3133 53.6154 35.2216 53.4698 35.2049 53.4507C35.1577 53.3965 35.2471 53.4869 35.3956 53.5622C35.9769 53.876 36.6553 54.1176 37.3568 54.3062C37.43 54.4365 35.7912 53.8581 35.3898 53.5725C35.3366 53.5422 35.3076 53.5238 35.2926 53.5157C35.1971 53.4608 35.2203 53.5036 35.3702 53.6077C35.5715 53.7458 35.9003 53.9191 35.8669 53.922C35.8486 53.9264 35.4917 53.7848 35.3137 53.7095C35.2029 53.6641 35.1549 53.6541 35.2918 53.7489C35.3612 53.7942 35.4796 53.8652 35.6636 53.9577C36.0717 54.1588 36.9883 54.495 38.7285 54.8926C35.683 54.3061 35.4194 53.8701 35.6489 54.0838C35.9021 54.2547 36.9311 54.6357 37.0208 54.6685C37.181 54.7584 34.348 53.9491 37.7789 54.9752C37.8912 55.1883 37.6788 55.0393 36.6903 54.7684C36.1526 54.6075 36.4032 54.7139 36.4542 54.7486C36.5163 54.764 36.3079 54.8019 35.0661 54.1552C34.9133 54.0668 34.8144 54.0021 34.7113 53.8977C34.6706 53.8556 34.6507 53.8156 34.6523 53.8126C34.6562 53.8093 34.6488 53.8433 34.6614 53.8131C34.6418 53.8277 34.6245 53.8027 34.6233 53.8314C34.6278 53.883 34.7726 54.0472 35.0417 54.1991C36.0369 54.8073 37.6981 55.2003 37.8217 55.2292C37.9876 55.2775 37.1657 55.1183 37.4508 55.2049C40.8899 56.0908 38.518 55.524 39.5163 55.8147C39.6004 55.8719 42.9743 56.2243 40.4016 55.9948C37.6526 55.7062 35.9048 55.074 34.8661 54.5152C34.484 54.3074 34.1944 54.09 34.1861 53.7869C34.2005 53.4851 34.3843 53.31 34.4793 53.1557C34.2698 53.3056 33.9397 53.6247 34.0774 54.0189C34.1536 54.2172 34.2442 54.3068 34.3851 54.4326C34.4933 54.5249 34.6157 54.6077 34.767 54.6936C37.5554 56.1777 40.8165 56.1252 41.6816 56.2238C43.3041 56.3201 41.6199 56.2732 41.8187 56.2991C41.8877 56.3152 43.2888 56.3767 43.3081 56.3759C44.321 56.6574 36.9831 56.1698 34.9446 54.8055C35.4854 55.1201 36.0605 55.37 36.6459 55.5813C35.9838 55.3793 35.3295 55.1288 34.714 54.789C34.5502 54.6975 34.4236 54.6154 34.2941 54.5065C34.4317 54.6257 34.5609 54.7094 34.7102 54.7957C36.7878 55.7928 35.7824 55.3757 34.6703 54.8676C34.53 54.7957 34.4048 54.722 34.2953 54.6453C34.1787 54.5649 34.0357 54.4371 33.9473 54.3149C33.6809 54.0056 33.777 53.4717 33.8846 53.309C33.9322 53.2421 33.7894 53.3406 33.7246 53.7126C33.6652 54.0911 33.9331 54.4447 34.0419 54.5466C34.175 54.6762 34.2171 54.7203 34.0214 54.5437C33.974 54.496 33.9196 54.4408 33.8516 54.3393C33.774 54.2181 33.6914 54.0543 33.6861 53.816C33.6996 53.2682 34.0561 52.964 34.4035 52.7047C34.2739 52.7888 34.1109 52.9153 34.0049 53.0255C33.8722 53.1636 33.7641 53.3069 33.6925 53.5178C33.5366 53.9682 33.7836 54.3765 33.898 54.5091C34.2132 54.8649 34.3461 54.9102 34.5691 55.0497C34.8698 55.2144 35.1964 55.4004 36.1131 55.7019C36.0867 55.7125 35.416 55.5468 34.5425 55.0976C34.3098 54.9668 34.1684 54.9009 33.902 54.6399C33.7081 54.4905 33.3861 53.847 33.6329 53.3724C34.0488 52.6067 34.5266 52.4864 34.9199 52.2457C35.7514 51.826 36.5042 51.5685 37.0303 51.376C35.2302 52.0145 34.2741 52.218 33.5864 53.3093C33.4227 53.6367 33.464 54.064 33.5866 54.2963C33.7265 54.5701 33.8164 54.6346 33.9352 54.7494C34.1736 54.952 34.2917 55.0065 34.524 55.1309C35.0052 55.3489 35.6936 55.7786 37.8456 56.3194C38.8639 56.4684 36.2869 55.8797 36.5049 55.8881C37.2572 56.0826 39.0182 56.5763 41.1695 56.5784C41.518 56.575 40.0609 56.3862 42.2276 56.5432C42.4663 56.564 43.8471 56.681 43.8283 56.6812C43.6429 56.7416 42.2727 56.6671 42.2152 56.6823C42.1607 56.7086 43.6912 56.7543 43.6975 56.7542C43.7418 56.8319 42.4189 56.7407 42.61 56.7683C43.0185 56.8409 48.5544 57.1529 41.3308 56.8468C47.3297 56.9996 42.1057 56.942 39.7672 56.634C39.1718 56.559 39.0131 56.586 38.1614 56.4371C37.0641 56.2498 35.7989 55.8186 35.2489 55.5727C34.7135 55.3461 37.3092 56.5756 34.4449 55.2733C34.2101 55.1328 34.0529 55.0634 33.7391 54.7348C33.6221 54.6041 33.4293 54.3443 33.3817 53.9938C33.321 53.6278 33.4824 53.2339 33.634 53.0371C33.5722 53.1208 33.5161 53.2108 33.4658 53.3261C33.4101 53.4549 33.37 53.6056 33.3616 53.7663C33.3404 54.0891 33.4696 54.4036 33.6089 54.5985C33.7233 54.7692 33.9059 54.9374 34.023 55.0276C34.1455 55.124 34.2804 55.2127 34.431 55.2984C36.9348 56.7126 40.5153 56.9311 42.604 57.0961C47.6658 57.3821 39.0624 57.2077 38.1363 56.7786C37.894 56.7361 38.6929 56.9475 38.5313 56.9198C38.3522 56.8909 35.9119 56.4694 34.2926 55.5474C33.8646 55.2697 33.3891 55.1122 33.0855 54.1805C32.975 53.7612 33.0987 53.3098 33.2031 53.107C33.3021 52.9003 33.3948 52.7849 33.4458 52.7159C33.5687 52.5609 33.5616 52.5646 33.4614 52.6702C33.3659 52.8012 33.1613 52.9376 33.0259 53.5506C32.8918 54.1661 33.2935 54.8404 33.54 55.0555C33.6917 55.2084 33.8151 55.2997 33.9251 55.3779C34.0392 55.4579 34.1549 55.5288 34.2676 55.5924C34.5251 55.7386 34.7336 55.8426 34.7676 55.8743C34.7864 55.8893 34.5699 55.8017 34.2458 55.6317C34.1339 55.5719 34.0164 55.5035 33.8965 55.4225C33.8365 55.382 33.7759 55.3383 33.7149 55.2902C33.64 55.231 33.5529 55.1548 33.4732 55.0726C33.3924 54.9894 33.3127 54.8951 33.2384 54.7851C33.147 54.65 33.056 54.4734 33.0004 54.2786C32.8743 53.9071 32.9495 53.3459 33.1134 53.0485C33.4399 52.4411 33.7611 52.2698 34.0011 52.0856C34.2424 51.9194 34.4632 51.7995 34.6322 51.7103C35.0057 51.5177 35.1829 51.4419 35.1604 51.442C35.1244 51.4582 34.8718 51.5185 34.1601 51.9198C33.9889 52.0233 33.8112 52.1347 33.5825 52.3367C33.4776 52.4321 33.3587 52.5461 33.2216 52.7357C33.0949 52.918 32.9601 53.1415 32.8906 53.5065C32.7392 54.2569 33.1967 54.9252 33.4382 55.1461C33.5102 55.2192 33.5874 55.2877 33.6605 55.3466C33.7173 55.3922 33.7753 55.4353 33.8344 55.4764C33.9527 55.5586 34.0759 55.6332 34.2056 55.704C36.3213 56.8239 38.665 57.0414 39.1525 57.2428C37.5103 56.9874 35.8401 56.6436 34.1784 55.753C33.8872 55.5814 33.6998 55.4911 33.3355 55.1125C33.0548 54.8971 32.5783 53.8238 32.9598 53.1029C33.0839 52.8077 33.2661 52.5831 33.4123 52.4326C33.546 52.2951 33.6826 52.1826 33.8221 52.0812C34.0462 51.9174 34.31 51.7685 34.5038 51.6688C35.3586 51.2378 36.1276 50.9794 36.9054 50.7114C36.118 50.9527 35.3412 51.1831 34.4649 51.5928C34.2657 51.6874 33.9942 51.8321 33.7596 51.9947C33.6142 52.0961 33.4704 52.2096 33.3283 52.3507C33.1731 52.5055 32.9776 52.7396 32.8419 53.0531C32.4262 53.8192 32.9314 54.9815 33.2246 55.2125C33.6062 55.6193 33.7973 55.7178 34.0955 55.9022C34.247 55.9917 34.4047 56.0783 34.5599 56.1582C34.4015 56.0828 34.2413 56.0008 34.0878 55.9161C33.7731 55.7296 33.5423 55.6182 33.1426 55.1737C32.9923 55.0019 32.7323 54.6157 32.6589 54.1613C32.5637 53.7035 32.7108 53.1346 32.8739 52.8573C33.2327 52.2398 33.5404 52.0712 33.8048 51.873C34.0513 51.7051 34.3013 51.5712 34.5126 51.4667C35.3913 51.0429 36.1544 50.7955 36.9247 50.5361C38.4607 50.0316 39.9222 49.6006 41.4117 49.065C33.7048 51.3104 43.8981 48.1833 43.8314 48.0116C43.8817 48.0106 40.9633 48.8996 40.4541 49.0114C41.7604 48.5705 44.4048 47.6518 45.6967 46.8233C46.3594 46.4163 46.6277 46.1096 46.6581 46.0405C46.6652 45.9689 46.6199 46.0834 45.7758 46.5698C46.0935 46.4052 46.5526 46.0385 46.6829 45.8313C46.8196 45.6087 46.7051 45.7192 46.7163 45.7125C46.6931 45.7021 46.7245 45.6224 46.6639 45.7082C46.6031 45.7916 46.3777 46.0235 46.0408 46.2533C45.3797 46.7118 44.5177 47.0833 44.8214 46.9032C45.4474 46.5295 46.5486 45.9243 46.6471 45.6613C46.6676 45.6178 46.628 45.6822 46.6212 45.7563C46.6114 45.8316 46.6248 45.8779 46.6112 45.8554C46.6008 45.8506 46.6429 45.9641 46.7433 46.0669C46.8392 46.1701 46.9588 46.2336 46.9952 46.2536C47.0809 46.2924 46.9248 46.2811 46.7609 46.3219C46.402 46.3965 45.9867 46.5499 45.5405 46.7364C44.6375 47.1227 43.5079 47.6271 40.6739 49.0274C40.8028 48.9786 40.937 48.9274 41.0693 48.8775C35.0718 51.5227 29.9225 56.1716 20.8763 55.7365C20.6268 55.6919 20.3827 55.6378 20.1351 55.5662C20.0113 55.5304 19.8865 55.49 19.7595 55.4432C19.6058 55.387 19.3942 55.2983 19.2008 55.195C19.0027 55.0898 18.7954 54.9603 18.5838 54.7889C18.3979 54.6456 18.0087 54.2646 17.7816 53.8494C17.2537 52.9711 17.297 51.822 17.5576 51.1612C18.005 50.0424 18.4735 49.7196 18.7959 49.3831C19.1955 49.0171 19.4287 48.8459 19.762 48.6027C22.7117 46.3191 29.9905 42.9893 33.5651 41.2046C34.2948 40.86 37.7855 39.1654 38.0453 39.0268C38.538 38.7983 35.8977 40.175 37.1102 39.5955C37.4183 39.5083 43.0685 36.36 42.5574 36.5063C41.994 36.8687 40.0342 38.0358 39.7032 38.1896C38.9964 38.529 40.1084 37.941 41.9034 36.8542C42.7761 36.3198 43.8634 35.6255 44.7991 34.8751C45.2453 34.5184 45.6903 34.1072 45.939 33.7936C46.0518 33.6577 46.1222 33.5214 46.1033 33.558C46.0907 33.5794 45.9978 33.8711 46.0909 34.2308C46.1419 34.4748 46.3847 34.9506 46.793 35.2346C47.2073 35.5209 47.4505 35.524 47.536 35.538C47.6825 35.5368 47.3943 35.5463 47.136 35.6228C46.56 35.775 45.8841 36.0543 45.2872 36.327C44.125 36.863 43.2754 37.3436 43.1059 37.443C43.513 37.2487 43.8712 37.0859 44.2765 36.9065C43.2067 37.4345 42.0924 38.0475 41.0006 38.6741ZM32.1098 47.2168C32.7592 46.8236 34.4997 45.996 35.5179 45.4448C36.9102 44.6858 39.2831 43.1853 38.329 43.9713C36.2035 45.0681 34.1516 46.1911 32.1098 47.2168ZM38.7816 45.0542C37.3328 45.7421 38.3784 45.0507 39.5724 44.5074C39.7022 44.447 40.7337 44.1125 38.7816 45.0542ZM24.1534 52.3221C24.2031 52.2834 25.2979 51.6688 25.3547 51.6454C26.3781 51.1352 23.0573 53.0159 24.1534 52.3221ZM10.4453 53.1765C10.3428 53.3205 10.4638 53.1728 10.5159 53.0334C10.5704 52.8955 10.5755 52.947 10.5435 53.0861C10.4339 53.4265 10.4736 53.2797 10.7334 52.9842C10.7628 52.9449 10.4533 53.1567 10.4453 53.1765ZM10.492 51.852C10.2117 50.983 9.57808 50.6491 9.3798 50.574C9.17847 50.504 9.19043 50.5333 9.29441 50.5133C9.40309 50.4986 9.56681 50.4563 9.6688 50.4175C9.77597 50.3781 9.83246 50.3447 9.77901 50.3423C9.72775 50.3383 9.5696 50.3668 9.36821 50.3888C9.31345 50.4126 9.07442 50.374 9.40798 50.5064C9.57904 50.5764 9.985 50.8626 10.2038 51.2132C10.455 51.5927 10.5053 51.915 10.492 51.852ZM33.6731 47.5071C33.8088 47.389 35.2903 46.6952 35.9222 46.3968C35.9253 46.4446 34.2795 47.2085 33.6731 47.5071ZM29.504 39.1707C29.4575 39.2389 34.2349 36.1757 34.5605 35.9295C33.7912 36.4223 29.5325 39.1082 29.504 39.1707ZM17.3812 46.8498C17.4941 46.7966 19.1499 45.8017 19.0749 45.805C18.2526 46.2543 16.8277 47.1373 17.3812 46.8498ZM22.4889 44.9444C22.5768 44.8831 21.2178 45.4535 24.2465 43.7935C24.6875 43.5523 23.1785 44.522 23.3301 44.4401C23.6687 44.2534 23.9162 44.1128 24.1228 43.9902C22.7474 44.8348 21.3529 45.6922 21.1942 45.7746C20.5159 46.1171 22.4517 44.9693 22.4889 44.9444ZM35.3834 37.031C35.6464 36.8325 37.4872 35.723 37.9024 35.4788C37.9737 35.4373 37.7163 35.7044 38.5212 35.1939C39.1845 34.7711 38.1465 35.3159 39.4416 34.5172C40.7343 33.7146 39.0535 34.8588 39.1644 34.7927C39.3243 34.7034 41.2883 33.3981 41.2615 33.475C41.2256 33.5503 39.0942 34.8799 38.5473 35.2268C37.881 35.6553 38.7348 35.202 37.5975 35.8918C36.8777 36.3267 37.2129 35.9828 37.0587 36.0713C36.9199 36.1548 34.4696 37.7286 35.3875 37.0289C35.3861 37.0296 35.3848 37.0303 35.3834 37.031ZM24.4915 43.7632C24.3899 43.8286 24.2696 43.9032 24.1228 43.9902C24.2462 43.9144 24.3693 43.8384 24.4915 43.7632ZM28.173 49.0528C27.4538 49.3058 29.533 48.4166 30.3563 48.0705C30.3892 48.1092 28.2827 49.0312 28.173 49.0528ZM25.7274 42.9138C27.7848 41.7205 26.3125 42.6431 24.4915 43.7632C25.0577 43.3986 25.0305 43.3189 25.7274 42.9138ZM51.6039 33.8581C51.6093 33.5791 51.5954 33.3958 51.6154 33.3703C51.6597 34.1229 51.5968 34.1742 51.6039 33.8581ZM43.047 31.2038C41.1436 32.1452 45.0946 30.3558 45.166 30.3916C45.1563 30.3846 44.63 30.5456 44.0766 30.7654C43.5911 30.9547 43.0879 31.1837 43.047 31.2038ZM11.6376 52.0607C11.5639 52.115 12.0132 51.6852 12.0974 51.5814C12.1409 51.5274 12.1219 51.5263 11.8984 51.7048C11.6573 51.9033 11.2916 52.1942 10.7366 52.7834C12.0233 51.6411 10.6534 52.9032 10.7414 52.8692C10.6753 52.8922 13.1693 50.8453 13.8334 50.4592C14.2465 50.0485 12.0266 51.7302 11.6407 52.0582C11.6397 52.059 11.6386 52.0599 11.6376 52.0607ZM41.4867 21.0363C41.942 20.7405 43.4315 20.0335 44.6011 19.6497C44.0441 19.8784 42.4848 20.5176 41.4867 21.0363ZM6.07835 24.4404C5.81566 24.7167 5.60083 25.0007 5.51964 25.1475C5.42694 25.3036 5.49058 25.2833 5.49325 25.0405C5.49158 24.905 5.46008 24.555 5.17297 24.1561C5.03485 23.9653 4.85931 23.8109 4.70655 23.7132C4.55017 23.6141 4.45726 23.5803 4.37202 23.5507C4.04758 23.466 4.18718 23.5302 4.27682 23.5185C4.50176 23.5155 4.70998 23.4851 4.71736 23.4989C4.73297 23.509 4.54039 23.566 4.30612 23.5927C4.20211 23.6147 4.04286 23.5699 4.30499 23.6328C4.37413 23.6547 4.46775 23.6886 4.59672 23.7647C4.73909 23.8485 4.91226 23.9875 5.05376 24.17C5.3563 24.5633 5.38721 24.9153 5.39004 25.0405C5.38912 25.2615 5.33639 25.2638 5.44665 25.0945C5.46224 25.0691 5.5764 24.9081 5.78527 24.6908C5.98741 24.4807 6.17822 24.3233 6.07835 24.4404ZM46.4345 12.9614C45.7972 13.2156 47.7282 12.1219 49.1116 11.1227C49.4105 10.9232 50.7022 9.95813 49.323 11.1181C49.3045 11.0584 48.8412 11.3731 48.1799 11.8009C47.6226 12.1631 46.8431 12.6591 46.4345 12.9614ZM26.8531 42.171C27.4231 41.7568 29.2859 40.7003 30.2664 40.1257C29.6967 40.5274 27.7276 41.6728 26.8531 42.171ZM19.6756 16.5737C20.3285 16.2284 20.7331 15.9135 20.6163 15.9692C20.0928 16.2181 18.9143 16.9318 19.6756 16.5737ZM20.931 45.7202C20.8392 45.7291 23.2162 44.2464 23.4504 44.2177C22.9094 44.5333 21.0164 45.6944 20.931 45.7202ZM43.4425 20.1569C43.8869 19.972 41.5793 21.0405 40.9537 21.3837C40.9511 21.3209 43.0668 20.2706 43.4425 20.1569ZM30.1796 10.8363C30.7614 10.5322 32.2621 9.74298 32.4044 9.63197C32.5936 9.48307 30.4132 10.6498 30.1796 10.8363ZM10.2907 10.1072C10.3572 10.0771 8.30316 11.3475 7.51048 11.9174C6.75232 12.4501 7.31137 11.9636 8.17821 11.3772C9.04411 10.7861 10.2505 10.122 10.2907 10.1072ZM13.54 19.8655C11.6631 20.7263 13.7484 19.7587 13.6219 19.7276C12.3846 20.371 9.28392 21.8469 11.4645 20.8891C11.859 20.7163 12.9787 20.1472 13.54 19.8655ZM15.2506 19.0137C15.4294 18.8909 16.7152 18.1177 15.5743 18.7248C15.0544 19.0012 14.2442 19.5281 15.2506 19.0137ZM7.81647 11.7344C8.5994 11.4391 7.33802 12.0263 5.83615 12.5005C5.15501 12.7324 4.22097 12.8542 4.26641 12.8152C4.29951 12.8214 4.41473 12.8306 4.63597 12.9596C4.85019 13.0826 5.07256 13.3225 5.17947 13.5252C5.39223 13.9624 5.3249 14.0113 5.34187 14.0405C5.34284 14.0416 5.34374 14.0414 5.34456 14.0415C5.35136 14.0414 5.3582 14.0381 5.36401 14.0363C5.35428 14.0317 5.34954 13.9671 5.44619 13.7953C5.5387 13.6272 5.73226 13.4072 5.79161 13.3838C5.68841 13.5016 5.53672 13.7104 5.46799 13.8483C5.3985 13.9848 5.3966 14.0261 5.39102 14.0298C5.38699 14.0352 5.38398 14.0374 5.38106 14.0387C5.38623 14.0432 5.39078 14.0482 5.39434 14.0405C5.38466 14.001 5.44337 13.8883 5.21353 13.4532C5.10228 13.2568 4.90245 13.0446 4.70757 12.9222C4.50285 12.7927 4.37804 12.7652 4.31086 12.7493C4.187 12.731 4.34526 12.756 4.54139 12.7277C4.77307 12.6993 5.01229 12.6515 5.32262 12.5728C6.47837 12.2739 7.66967 11.7828 7.81647 11.7344ZM20.5901 5.75346C18.6841 6.79331 18.2656 6.79946 18.4289 6.71142C20.5131 5.61065 19.1919 6.40674 19.259 6.38077C19.4114 6.31701 20.8936 5.53175 20.584 5.75641C20.586 5.75543 20.588 5.75444 20.5901 5.75346ZM10.4014 10.6419C10.3324 10.6811 8.73834 11.3852 8.66006 11.4091C7.32841 11.9318 11.844 9.93786 10.4014 10.6419ZM45.0333 30.6454C46.1027 29.8993 45.123 30.6956 44.3591 31.195C44.2927 31.2367 44.0622 31.3114 45.0333 30.6454ZM16.1429 18.5246C16.4167 18.4147 23.1457 14.8211 22.6995 14.9408C22.1308 15.2821 14.4809 19.3277 16.1429 18.5246ZM32.0456 20.2142C33.2478 19.621 31.9821 20.3541 31.3206 20.6418C31.0756 20.7483 31.7426 20.3638 32.0456 20.2142ZM17.6693 47.6385C16.5079 48.4394 16.66 48.13 17.7189 47.5314C17.759 47.5089 17.7127 47.6086 17.6693 47.6385ZM41.7748 15.4193C37.6078 17.5954 38.4601 16.8877 43.9478 14.1067C43.7867 14.2095 43.6298 14.3095 43.4678 14.4118C49.8084 10.9087 43.8902 14.2656 42.3647 15.0392C41.7884 15.3472 42.2987 15.1394 41.779 15.4175C41.7776 15.4181 41.7762 15.4187 41.7748 15.4193ZM25.7235 23.381C21.6661 25.2252 29.2852 21.4608 31.4895 20.3665C29.3949 21.5034 26.6384 22.872 30.4309 21.0797C24.9525 23.8408 27.2035 22.6269 26.9783 22.7271C26.7162 22.8507 25.8974 23.3019 25.7235 23.381ZM36.286 18.1122C36.5059 17.9969 38.2973 17.1572 38.9241 16.8334C38.0776 17.3447 34.7616 18.9143 36.286 18.1122ZM35.2202 0.229628C35.036 0.326323 34.5677 0.400263 32.9279 0.801241C33.4117 0.638426 34.4777 0.363848 35.2202 0.229628ZM33.5464 46.8429C34.4771 46.3784 36.3655 45.4228 35.7617 45.6667C35.6895 45.7 33.5329 46.815 33.5464 46.8429ZM35.8507 8.03919C35.9995 7.92726 41.4965 5.39999 39.5777 6.20866C38.9296 6.43773 34.1207 8.82316 35.8507 8.03919ZM9.13083 22.0496C9.58408 21.8556 11.2917 21.0332 11.3441 20.9879C11.4235 20.9034 9.31653 21.9277 9.13083 22.0496ZM38.3408 44.4482C38.4539 44.3797 41.4819 42.9129 41.1492 43.0541C40.4487 43.293 37.885 44.6508 38.3408 44.4482ZM48.8723 27.4503C49.0974 27.2431 49.4196 27.0185 49.4908 26.9478C49.6024 26.7493 50.7059 26.0619 51.5163 24.0169C51.6862 23.5303 51.8009 22.693 51.5875 21.9699C51.3765 21.2295 51.022 20.8198 50.8035 20.5768C50.5805 20.3415 50.4869 20.2713 50.599 20.3554C50.6976 20.4502 51.062 20.6867 51.4461 21.4361C51.5031 21.5588 51.7713 22.1018 51.7659 22.8868C51.7527 23.6915 51.5217 24.3017 51.1943 24.905C50.6166 25.9388 49.7399 26.8095 48.9896 27.4989C47.3847 28.9531 45.6525 30.1465 45.2765 30.4195C44.9063 30.5922 47.54 28.7589 48.1381 28.2006C48.2418 28.1078 48.2534 28.0171 48.8706 27.4523C48.8712 27.4516 48.8717 27.451 48.8723 27.4503ZM27.0209 2.85289C26.8069 2.95493 21.4011 5.45117 21.457 5.37888C23.2788 4.50442 25.1224 3.64933 27.0209 2.85289ZM29.9006 1.74563C31.1541 1.33822 28.2551 2.38956 27.4544 2.72225C27.4243 2.68355 29.7053 1.79478 29.9006 1.74563ZM18.954 17.3032C19.4627 17.014 17.8357 17.7978 18.1838 17.5927C18.4107 17.4604 19.5682 16.8706 19.9228 16.6493C20.0191 16.5882 18.8263 17.1473 18.4805 17.3364C17.998 17.6006 18.4953 17.4014 17.9685 17.6844C16.2406 18.6113 14.6441 19.4035 13.026 20.2214C12.8807 20.295 14.0506 19.7514 12.7769 20.3934C12.5791 20.4911 11.3657 21.0376 9.8843 21.7333C8.50704 22.455 7.31629 22.98 6.08259 23.388C5.46782 23.5899 4.83332 23.7493 4.4081 23.7879C4.18934 23.8227 4.002 23.7465 4.30375 23.8318C4.42645 23.8673 4.78899 24.0715 4.98974 24.4036C5.18638 24.7169 5.1988 24.9642 5.19972 25.0405C5.1496 25.3704 5.21238 24.9435 5.61318 24.4998C5.58606 24.5233 5.41456 24.711 5.29176 24.8853C5.1357 25.0881 5.12628 25.2573 5.13726 25.0405C5.13535 24.9782 5.11427 24.7586 4.97142 24.5095C4.82066 24.2321 4.54346 24.0224 4.40286 23.9574C4.12214 23.8318 4.1458 23.8798 4.14262 23.8709C6.20613 23.9688 13.5556 20.1893 17.0353 18.3262C17.9744 17.8262 17.4994 18.0324 17.9057 17.8136C18.2291 17.6388 17.8776 17.9149 18.954 17.3032ZM33.0696 47.1302C33.549 46.9779 35.0857 46.1367 36.0991 45.6151C35.7098 45.7389 34.0493 46.6603 33.0696 47.1302ZM24.3743 13.5321C23.8666 13.7791 22.275 14.5266 22.1571 14.6107C22.0001 14.7189 24.2896 13.6286 24.3743 13.5321ZM27.1908 30.655C27.1449 30.69 26.0294 31.4885 25.9863 31.5171C24.954 32.1854 28.3081 29.786 27.1908 30.655ZM5.32962 47.1286C5.40869 47.0056 5.53299 46.8366 5.65251 46.69C5.7623 46.5542 5.88646 46.4124 6.0129 46.2782C6.27628 45.9991 6.49999 45.7995 6.6273 45.7205C6.43717 45.8919 5.99856 46.3346 5.75044 46.6285C5.47793 46.9427 5.32362 47.1776 5.32962 47.1286ZM42.0885 22.7587C41.863 22.8163 44.5395 21.1119 45.0552 20.7469C44.8864 20.9229 42.2639 22.7248 42.0885 22.7587ZM35.5179 0.442275C33.3727 0.798579 33.8785 0.866839 32.5809 1.14114C32.3694 1.20374 31.6213 1.09746 33.8741 0.638129C34.2995 0.580744 32.6622 0.921046 35.5179 0.442275ZM44.8529 13.6126C45.2491 13.3325 46.601 12.5867 47.5694 11.9651C47.3805 12.1512 45.4703 13.2782 44.8529 13.6126ZM44.0799 42.0031C44.6148 41.9119 45.9485 41.3414 47.8533 41.6101C48.8403 41.7427 49.8642 42.4276 50.2481 42.9031C50.6521 43.3831 50.7359 43.5171 50.3834 43.0082C50.3282 42.9456 49.9786 42.4601 49.2575 42.0487C48.5325 41.6287 47.6365 41.468 46.8879 41.4811C45.438 41.5164 44.4205 41.9132 44.0799 42.0031ZM30.9021 39.472C32.3356 38.5452 29.2926 40.3439 28.3664 40.9621C28.7962 40.702 30.806 39.5346 30.9021 39.472ZM32.7916 28.4771C32.8596 28.4336 34.4076 27.5024 34.4823 27.4598C35.784 26.7434 31.3947 29.3844 32.7916 28.4771ZM9.41493 43.3425C8.95577 43.7365 5.30712 45.7974 4.66363 45.8532C5.23163 45.7619 10.067 42.9019 9.41493 43.3425ZM36.139 7.68082C37.4201 6.96985 38.5318 6.46535 39.9267 5.33202C39.4778 5.93033 36.3314 7.63671 36.139 7.68082ZM38.4635 25.0012C38.5479 24.949 38.632 24.9021 38.7122 24.8526C38.6278 24.9032 38.5447 24.9526 38.4635 25.0012ZM9.22074 21.4898C8.29701 22.0851 8.54822 22.0166 8.59662 21.9832C9.27354 21.5454 10.2676 20.8356 9.22074 21.4898ZM34.2664 46.6496C34.6481 46.5331 36.3117 45.6113 37.3156 45.1129C37.0013 45.2123 35.0447 46.245 34.2664 46.6496ZM21.4482 25.4702C20.1618 26.0693 25.2099 23.2832 26.3366 22.7849C26.4277 22.7758 21.6233 25.3669 21.4482 25.4702ZM26.3056 42.0945C26.1827 42.105 24.1115 43.4182 24.5716 43.1727C24.8646 43.0155 26.3815 42.0876 26.3056 42.0945ZM28.9557 21.4976C29.4371 21.2379 30.5961 20.7203 30.2106 20.948C29.716 21.2397 28.8316 21.5648 28.9557 21.4976ZM26.3174 13.3483C26.5277 13.2411 29.3502 11.6506 28.1487 12.239C27.3153 12.647 27.221 12.7867 27.029 12.8911C26.8161 13.0046 22.2201 15.4055 26.3174 13.3483ZM13.3637 31.467C12.3615 32.1673 11.1506 32.928 10.1208 33.55C10.5225 33.288 12.8964 31.7419 13.3637 31.467ZM34.4201 37.219C34.1594 37.3637 27.2291 41.4919 31.195 39.1981C31.4241 39.0695 35.2235 36.8114 34.4201 37.219ZM35.5179 0.442275C35.7994 0.404147 36.0924 0.370463 36.5014 0.345748C36.0955 0.37342 35.8015 0.405982 35.5179 0.442275ZM23.6277 13.7457C24.0043 13.5198 22.0151 14.4722 21.4429 14.7781C21.2837 14.9071 23.572 13.7767 23.6277 13.7457ZM10.0667 33.6459C9.4664 34.0362 8.36281 34.6364 7.64557 34.9746C7.75951 34.9115 9.76599 33.8059 10.0667 33.6459ZM46.8898 19.2226C48.1407 18.3402 49.6123 16.9967 49.583 16.9381C49.6155 16.916 49.686 16.8582 49.7952 16.7588C49.8593 16.6956 50.1916 16.3754 50.6039 15.8489C50.8368 15.5462 51.045 15.2433 51.2403 14.849C51.4808 14.3522 51.634 13.8355 51.6213 13.2231C51.6002 12.2321 51.0604 11.577 50.9327 11.4251C50.7602 11.2275 50.7572 11.2239 50.9021 11.3717C51.0113 11.4906 51.4239 11.937 51.5915 12.6845C51.7602 13.5073 51.6098 14.1101 51.3615 14.7055C50.3669 16.6706 48.9722 17.587 47.727 18.6248C45.2069 20.4986 43.4335 21.7859 48.1847 18.1082C47.788 18.4691 47.2907 18.8889 46.8898 19.2226ZM14.1938 40.2605C14.9039 39.8331 16.7286 38.4498 16.2325 38.7771C15.8928 39.0068 13.4899 40.6891 14.1938 40.2605ZM16.4847 38.2314C16.2748 38.3507 14.4181 39.6047 14.3884 39.6624C15.4947 38.9629 17.4417 37.6722 16.4847 38.2314ZM19.3746 36.6354C19.7952 36.3405 20.2802 35.8809 20.2286 35.9136C19.7814 36.1999 18.6481 37.1022 19.3746 36.6354ZM39.7205 5.11114C38.8227 5.91539 36.6771 7.13111 36.1854 7.45973C36.0727 7.5073 35.8478 7.61179 35.3919 7.8295C35.3933 7.82879 35.3947 7.82808 35.396 7.82737C34.7554 8.24792 16.8006 16.7517 28.8847 11.1001C29.2644 10.9218 28.7317 11.1215 30.262 10.3958C30.3657 10.3466 30.4364 10.3592 30.7535 10.2084C31.4455 9.88856 35.3595 7.98771 36.0963 7.53223C36.1069 7.53538 36.1641 7.51336 36.2791 7.45938C36.7902 7.21891 37.7371 6.67163 38.546 6.10261C38.755 5.95603 38.9352 5.82064 39.09 5.69701C39.2896 5.54156 39.4477 5.40479 39.5647 5.29568C39.7943 5.07907 39.8805 4.96932 39.7205 5.11114ZM20.2488 35.8529C19.8663 36.0706 18.6428 36.8521 18.542 36.9601C19.155 36.5938 21.1575 35.3328 20.2488 35.8529ZM34.1252 37.22C33.3198 37.674 31.3224 38.9389 31.9503 38.5973C32.3397 38.388 35.0615 36.6945 34.1252 37.22ZM8.51175 43.7804C12.6061 40.7486 9.47954 43.0383 10.0717 42.5239C9.54043 42.9372 8.99123 43.3771 8.51175 43.7804ZM15.8026 8.42457C16.563 8.06405 15.7302 8.59422 14.8608 8.95581C14.5879 9.06908 15.3824 8.62399 15.8026 8.42457ZM16.4608 0.461667C16.8954 0.487123 16.0617 0.522817 15.3158 0.638894C14.5713 0.751466 13.9115 0.907647 14.7348 0.674271C14.8117 0.627072 16.4057 0.436429 16.4608 0.461667ZM5.64072 12.9765C6.09854 12.7718 6.4162 12.6885 7.83775 12.1443C5.75797 12.9475 7.6747 12.3393 5.64072 12.9765ZM49.5636 16.9471C49.574 16.9406 49.5827 16.935 49.583 16.9381C49.5717 16.9457 49.5659 16.9481 49.5636 16.9471ZM23.4021 33.6855C23.9714 33.3386 25.4822 32.2377 24.9991 32.5199C24.952 32.5474 23.5981 33.4924 23.4021 33.6855ZM36.1854 7.45973C36.2743 7.42323 36.2351 7.45161 36.0963 7.53223C36.0862 7.5293 36.1198 7.5036 36.1854 7.45973ZM15.3412 39.5644C15.3588 39.5062 13.0712 41.0873 12.9613 41.1625C11.6744 42.1312 14.3779 40.2587 15.3412 39.5644ZM18.0494 46.8417C17.9288 46.922 18.7724 46.5186 19.2552 46.1724C19.6205 45.9088 18.4934 46.5432 18.0494 46.8417ZM5.01385 13.644C5.17238 13.2573 5.91222 12.5107 6.0934 12.4311C5.90649 12.5924 5.56191 12.9263 5.34788 13.1953C5.12305 13.4714 5.0292 13.6574 5.01385 13.644ZM18.1118 0.522237C18.3158 0.528127 18.5216 0.537965 18.7931 0.578256C18.9792 0.608514 19.178 0.647744 19.4286 0.737699C19.5271 0.772489 19.8342 0.894017 20.1086 1.10947C20.2525 1.22094 20.4092 1.36803 20.555 1.56662C20.7481 1.82365 20.9225 2.21431 20.9669 2.6011C21.0208 2.9788 20.9392 3.39222 20.869 3.58854C20.8032 3.78679 20.7219 3.94633 20.6417 4.07873C20.4853 4.33746 20.2996 4.52721 20.2269 4.59997C20.0444 4.78393 19.8182 4.95261 19.7098 5.02933C19.5774 5.1237 19.4295 5.21869 19.3006 5.29711C19.1849 5.36764 19.0646 5.43734 18.9387 5.50742C17.98 6.03346 17.0801 6.42968 16.3703 6.75321C16.3532 6.7148 17.239 6.31777 18.3508 5.76207C18.4946 5.68929 18.6352 5.61656 18.7708 5.54411C18.923 5.46278 19.0819 5.37459 19.227 5.28908C19.5717 5.05219 19.8132 5.03832 20.4861 4.25089C20.6601 3.94974 20.9777 3.73198 20.9427 2.64749C20.9115 2.18274 20.6163 1.65355 20.4433 1.46859C20.2598 1.24958 20.0733 1.106 19.9107 1.00168C19.7501 0.898881 19.5935 0.827241 19.4836 0.783315C19.4047 0.751687 19.3316 0.726438 19.2627 0.704976C19.1251 0.662271 19.0038 0.634134 18.8904 0.611787C18.4986 0.539712 18.3147 0.534993 18.1118 0.522237ZM37.3232 0.510638C37.3273 0.510779 37.3371 0.510943 37.3521 0.511168C37.4451 0.512557 37.6952 0.514304 37.9907 0.536517C38.1487 0.549228 38.2675 0.559234 38.4952 0.594371C38.7581 0.637244 39.0333 0.698043 39.3442 0.827746C39.5355 0.876895 40.5366 1.44271 40.7549 2.37033C40.9896 3.273 40.6904 3.8555 40.5449 4.15276C40.3945 4.42661 40.3485 4.47423 40.3049 4.54388C40.2685 4.59832 40.2729 4.60173 40.3301 4.53614C40.3619 4.49917 40.3988 4.45336 40.4398 4.39651C40.4818 4.33649 40.5198 4.2875 40.605 4.13044C40.7458 3.85513 40.9529 3.40811 40.8835 2.71543C40.8321 2.01111 40.2797 1.27468 39.8113 1.00091C39.5362 0.82735 39.4542 0.803428 39.3211 0.745883C39.1971 0.69604 39.0785 0.65779 38.9641 0.626609C38.7489 0.566318 38.4773 0.524184 38.3541 0.511203C38.2216 0.496062 38.0929 0.486735 37.9705 0.481193C37.7261 0.470176 37.5049 0.474162 37.3521 0.481078C37.1631 0.492461 37.1162 0.504634 37.3232 0.510638ZM21.7831 44.6125C22.6211 44.0636 20.5875 45.1644 19.7358 45.7901C19.2882 46.1141 21.6538 44.6948 21.7831 44.6125ZM28.1776 30.3239C29.2472 29.5219 26.5182 31.4085 26.1816 31.7221C26.679 31.3677 27.7988 30.607 28.1776 30.3239ZM13.33 40.1303C9.83339 42.3316 11.8577 41.2951 12.4267 40.8689C12.504 40.8098 13.4145 40.0768 13.33 40.1303ZM46.5013 50.9698C45.912 51.2905 48.1759 50.2546 48.4658 49.9195C48.6274 49.8103 46.8734 50.8207 46.5013 50.9698ZM32.8142 17.8189C32.9621 17.7167 33.1084 17.6158 33.253 17.5166C33.1458 17.5928 33.0033 17.6913 32.8142 17.8189ZM38.4171 23.6869C35.7491 25.0692 36.1222 25.0735 35.9012 25.2062C35.4263 25.5097 34.3028 26.1788 33.4348 26.7805C34.4173 26.0845 35.4315 25.3825 36.4241 24.7183C35.5592 25.184 28.7188 29.8223 28.6127 29.976C28.4336 30.1639 30.5564 28.641 30.6162 28.608C30.7077 28.5516 31.1212 28.4357 31.3256 28.3C31.6346 28.0599 37.4063 24.1894 38.4171 23.6869ZM6.57921 45.2463C7.05462 44.8339 7.24352 44.7525 7.44351 44.5634C7.51557 44.4967 7.48915 44.4471 7.74568 44.2168C7.34627 44.5518 6.96206 44.8875 6.57921 45.2463ZM43.1912 20.8984C43.9887 20.5741 40.4469 22.27 40.3524 22.3694C39.7347 22.6485 42.491 21.1068 43.1912 20.8984ZM16.5083 38.793C16.6318 38.7124 18.9527 37.0661 18.921 37.0422C18.2832 37.4749 15.1728 39.6886 16.5083 38.793ZM8.08094 43.9389C8.81917 43.3405 10.3738 42.2676 10.142 42.3394C10.1408 42.3403 10.1397 42.3411 10.1385 42.342C9.43775 42.8622 8.7504 43.391 8.08094 43.9389ZM24.6419 42.694C22.9753 43.5424 23.8082 43.2317 25.2609 42.4119C25.6614 42.1054 24.9175 42.5534 24.6419 42.694ZM19.4889 45.7003C19.0033 45.9499 14.5925 48.7959 15.2893 48.4416C15.5407 48.2947 18.0744 46.6097 18.1969 46.546C18.3849 46.4375 17.5838 47.0237 18.9793 46.1389C18.8902 46.1636 19.6418 45.6149 19.4889 45.7003ZM23.2776 43.4157C21.6271 44.2944 21.3716 44.6622 22.5653 43.9414C23.0386 43.6564 23.51 43.2926 23.2776 43.4157ZM29.8025 39.5377C29.2158 39.8683 27.6775 40.7557 26.6475 41.4395C28.0657 40.6001 29.4793 39.7648 30.8964 38.9228C31.0418 38.7961 30.314 39.25 29.7987 39.54C29.7999 39.5392 29.8012 39.5385 29.8025 39.5377ZM7.67878 7.35772C8.4007 5.89934 6.89124 9.32187 6.91455 9.4611C6.72406 9.88023 7.31996 8.01301 7.67878 7.35772ZM35.0009 53.4159C34.8523 53.4973 34.7021 53.5775 34.5948 53.6853C34.5073 53.8154 34.41 53.8114 34.7122 54.0677C34.134 53.7455 35.238 53.305 36.0127 53.0295C36.616 52.6678 35.3308 53.204 35.0009 53.4159ZM36.1901 55.1802C36.0734 55.1234 36.6545 55.5948 35.1585 54.8168C34.6714 54.5147 35.7878 55.1226 37.2723 55.4732C38.7472 55.8514 40.5409 56.0359 41.0847 56.1206C39.8653 56.0797 37.2317 55.5817 36.1901 55.1802ZM46.8057 56.9916C46.8798 57.015 44.5229 57.094 44.2499 57.066C42.8175 57.0082 46.4188 56.9706 46.8057 56.9916ZM39.2864 56.6526C40.3897 56.8476 37.9307 56.5218 37.2049 56.2775C37.1442 56.2528 39.1156 56.6454 39.2864 56.6526ZM16.2229 3.46904C15.1297 3.85172 14.2724 4.52118 15.8886 3.72047C15.9693 3.68047 16.2701 3.45331 16.2229 3.46904ZM44.503 57.219C43.3966 57.181 45.8482 57.1709 46.5813 57.1416C46.6474 57.1804 44.6725 57.2351 44.503 57.219ZM15.3656 3.5573C13.919 4.1268 14.5367 4.15771 14.7163 4.08897C15.4186 3.83441 18.0699 2.44293 17.984 2.32326C17.9802 2.33713 17.7904 2.4761 17.6363 2.56626C17.496 2.65172 17.3062 2.75574 17.1785 2.82293C16.886 2.97693 16.6417 3.09417 16.4444 3.18639C16.038 3.37539 15.8572 3.44463 15.7461 3.48029C15.5349 3.54561 15.6938 3.42772 15.3656 3.5573ZM8.88651 6.84333C7.59305 7.56053 10.9606 5.85449 11.5768 5.50533C10.9236 5.81335 9.25007 6.63089 8.88651 6.84333ZM1.80292 13.1618C1.75074 13.3696 1.69208 13.6782 1.68986 14.0405C1.69498 14.4669 1.73634 14.9669 2.13416 15.5273C2.52311 16.0664 3.14385 16.3174 3.5696 16.396C4.42178 16.5435 4.93841 16.4073 5.12942 16.3745C4.75294 16.4142 4.1855 16.5459 3.27949 16.2893C2.87336 16.178 2.27913 15.7871 2.02582 15.2987C1.74017 14.7648 1.72901 14.4088 1.71743 14.0405C1.7157 13.6017 1.78821 13.2804 1.80292 13.1618ZM2.56803 16.1111C3.15663 16.5109 3.56312 16.5317 3.83828 16.5669C4.09061 16.587 4.24188 16.5686 4.27708 16.5545C4.31229 16.5385 4.23132 16.5276 4.02124 16.5067C3.83216 16.4747 3.42815 16.4884 2.80015 16.1789C2.69693 16.1279 2.48751 16.0507 2.56803 16.1111ZM10.3542 14.8653C11.1239 14.6099 11.899 14.07 10.6987 14.5992C10.3532 14.7495 10.2664 14.8941 10.3542 14.8653ZM13.4646 4.08724C12.4075 4.53738 11.1008 5.28156 13.3476 4.25837C12.5744 4.63324 11.7904 5.01789 11.0163 5.41259C13.978 4.08524 13.68 4.06316 14.5244 3.67902C15.6944 3.15508 15.6429 3.33093 15.438 3.47585C15.7462 3.29884 16.4142 2.97773 17.1568 2.57099C17.3547 2.46089 17.5126 2.36937 17.6813 2.25649C17.7494 2.21094 17.8174 2.15714 17.8221 2.14999C17.8213 2.15271 17.815 2.14416 17.739 2.24878C17.7039 2.30031 17.6556 2.379 17.6131 2.50428C17.5637 2.63386 17.5155 2.948 17.6035 3.22176C17.6439 3.35924 17.7101 3.48563 17.7794 3.58158C17.8303 3.65256 17.8832 3.70972 17.9319 3.75499C18.0302 3.84552 18.1094 3.89028 18.1616 3.91712C18.2642 3.9656 18.2512 3.95354 18.253 3.9565C18.2306 3.95146 18.1509 3.93886 18.0565 3.93086C17.8164 3.91122 17.6477 3.90891 17.3521 3.90928C16.4035 3.91157 15.5157 4.05996 14.8472 4.27789C15.5175 4.07998 16.3926 3.95206 17.3521 3.97226C17.5949 3.97632 17.7675 3.98461 17.9531 4.00131C18.0514 4.01029 18.1275 4.02113 18.1756 4.03058C18.2346 4.03961 18.2668 4.0608 18.1656 4.02285C18.0936 3.9893 17.9201 3.92146 17.7164 3.66152C17.5933 3.50873 17.465 3.21324 17.4553 2.95239C17.4378 2.68675 17.5125 2.4722 17.5462 2.39173C17.7458 1.99098 17.7632 2.08086 17.7429 2.0729C17.6931 2.11163 17.5107 2.22519 17.3649 2.30382C16.6814 2.67478 15.8971 3.01906 15.2639 3.30574C14.6872 3.56437 14.1321 3.85867 13.6394 4.07903C12.8335 4.43981 13.5248 4.06195 13.4688 4.08535C13.4674 4.08598 13.466 4.08661 13.4646 4.08724ZM18.5365 10.9782C20.6741 10.017 19.2664 10.5146 18.0932 11.127C18.0432 11.1543 18.4848 11.0014 18.5365 10.9782ZM47.7156 57.6447C44.4646 57.6507 46.8585 57.8163 40.0386 57.4739C42.9161 57.6513 40.2057 57.4241 40.7692 57.4353C41.2207 57.4552 42.8893 57.5774 41.9221 57.4539C43.2004 57.7001 48.7043 57.4897 48.97 57.3913C48.9678 57.3916 48.9655 57.3918 48.9632 57.392C49.1149 57.3805 48.7515 57.596 47.7156 57.6447ZM1.35738 13.0724C1.21584 13.4074 1.16689 13.7248 1.17139 14.0405C1.19808 14.5077 1.21737 14.9364 1.69348 15.6833C1.92554 16.0221 2.29377 16.3619 2.7459 16.5819C3.13499 16.7819 3.65316 16.8979 4.03045 16.9458C4.79589 16.8941 4.66486 16.8644 4.04171 16.8373C3.7579 16.8003 3.22026 16.8035 2.49294 16.3584C2.12811 16.1273 1.77317 15.7454 1.56974 15.2897C1.36153 14.8129 1.32098 14.4627 1.31425 14.0405C1.5247 10.8624 4.04898 9.50985 4.39969 9.23019C2.59913 10.6603 2.16636 11.6547 2.20105 11.5777C2.22696 11.548 2.7935 10.7317 3.50553 10.0834C4.9277 8.7907 6.715 7.58938 4.06211 9.36557C6.19133 7.76697 6.55978 7.69662 6.4374 7.70106C6.32069 7.73653 5.73608 8.05449 6.05945 7.82213C6.74121 7.29666 9.24693 5.99843 9.08593 6.00828C9.08456 6.00899 9.08318 6.0097 9.08181 6.01042C7.56211 6.80999 6.04356 7.6703 4.58503 8.77332C6.11705 7.888 3.08051 9.85395 2.11901 11.1881C1.79649 11.712 1.49398 12.3458 1.35738 13.0724ZM9.27297 6.2034C9.11486 6.2363 5.85588 8.14092 6.0993 8.07996C6.51888 7.72821 11.1804 5.2646 9.27297 6.2034ZM14 4.72122C14.9327 4.21879 16.634 4.0352 17.2644 3.99779C16.1089 3.95902 14.4671 4.37476 14 4.72122ZM36.94 2.84652C36.6702 3.04773 36.6669 3.05922 36.8346 2.9574C36.9686 2.87862 37.35 2.6128 37.4853 2.47225C37.5228 2.43566 37.5285 2.42117 37.5029 2.45933C37.4924 2.47881 37.3218 2.71751 37.3718 3.14267C37.4187 3.58406 37.7508 3.9031 37.8769 3.97187C38.0149 4.05462 37.9992 4.03609 38.0191 4.04786C38.0355 4.05575 37.9928 4.04957 37.9965 4.05629C37.989 4.05842 38.0575 4.08728 37.9826 4.06905C37.9756 4.06599 37.9711 4.06726 37.9112 4.03616C37.8421 3.99187 37.6257 3.89624 37.4356 3.51234C37.2374 3.11926 37.3457 2.63426 37.4257 2.5066C37.4933 2.37948 37.4929 2.40363 37.472 2.42135C37.3605 2.54874 36.9345 2.85092 36.94 2.84652ZM5.55819 16.7416C7.44921 16.3494 6.56734 16.423 5.10187 16.7269C5.0038 16.7453 5.4917 16.7548 5.55819 16.7416ZM45.0923 57.7693C44.9806 57.8748 40.2633 57.6634 39.4098 57.4561C39.9096 57.5857 45.2291 57.7784 45.0923 57.7693ZM12.6011 5.89442C14.0676 4.5914 16.755 4.15215 17.3521 4.19302C17.3852 4.19232 17.4106 4.19215 17.4287 4.19248C17.6843 4.19883 17.4749 4.23693 17.3521 4.26113C17.3105 4.27062 17.2843 4.27759 17.3057 4.27806C17.3139 4.27823 17.3295 4.27835 17.3521 4.27851C17.495 4.28029 17.7668 4.27812 18.0589 4.30803C18.1132 4.31358 18.1718 4.32462 18.1611 4.32258C18.1513 4.3195 18.1305 4.31646 18.0547 4.28489C17.9539 4.23538 17.7262 4.15066 17.4603 3.78816C17.2844 3.54887 17.1585 3.1615 17.1733 2.83569C17.1765 2.67578 17.2091 2.52019 17.2398 2.42143C17.2653 2.33805 17.2944 2.26767 17.3229 2.20853C17.4384 1.97648 17.5367 1.89656 17.5475 1.88258C17.6007 1.83342 17.5501 1.88052 17.5005 1.91256C16.9077 2.29896 15.951 2.72989 15.89 2.76684C15.7696 2.8286 16.4524 2.62786 15.7423 3.00251C16.0415 2.844 16.6937 2.5358 17.2958 2.18912C17.4256 2.11419 17.5944 2.00526 17.6422 1.96447C17.6569 1.9668 17.6813 1.87845 17.4838 2.17132C17.438 2.25195 17.3891 2.34092 17.3416 2.51878C17.284 2.731 17.2727 3.05196 17.3731 3.34208C17.4211 3.48614 17.4909 3.61701 17.5658 3.72244C17.6228 3.8028 17.6776 3.8641 17.7318 3.91723C17.84 4.02237 17.9344 4.08289 18.0044 4.12226C18.2546 4.24562 18.1991 4.19561 18.1662 4.19821C18.1265 4.19158 18.0613 4.18322 17.9672 4.17593C17.7746 4.16182 17.6073 4.15746 17.3521 4.15704C15.3082 4.10259 13.6921 4.99222 13.5697 5.09759C13.4707 5.16119 13.8182 4.99417 13.8888 4.98586C13.9709 5.00021 13.6881 5.00726 12.6037 5.892C12.6028 5.8928 12.6019 5.89361 12.6011 5.89442ZM18.138 4.25499C18.03 4.22817 17.9943 4.21749 18.0821 4.21969C18.1157 4.21984 18.1795 4.22724 18.1854 4.22688C18.1747 4.22048 18.1855 4.23359 18.0476 4.16992C17.9717 4.13113 17.8506 4.06684 17.697 3.9125C17.5793 3.81639 17.2705 3.35704 17.2772 2.92251C17.2676 2.71694 17.3206 2.49723 17.3526 2.41055C17.3868 2.30993 17.4257 2.23168 17.4608 2.17088C17.5308 2.05071 17.5893 1.99041 17.6096 1.96885C17.6493 1.92877 17.6461 1.93754 17.6117 1.96261C17.5659 1.9985 17.4183 2.09213 17.3139 2.15107C17.0603 2.29635 16.8145 2.41755 16.6596 2.49114C16.0006 2.79237 16.5366 2.53383 17.1556 2.1921C17.3054 2.10801 17.4572 2.01631 17.5484 1.95217C17.5866 1.92629 17.6266 1.89179 17.601 1.91392C17.6056 1.93305 17.4362 1.97519 17.274 2.52412C17.1631 2.87948 17.2896 3.49737 17.5289 3.78071C17.6977 4.00662 17.8558 4.10811 17.9554 4.1675C18.1734 4.28188 18.1423 4.24888 18.1711 4.26213C18.1944 4.26686 18.1362 4.25484 18.138 4.25499ZM12.7426 4.226C12.4344 4.34569 9.72912 5.62939 9.52262 5.80946C10.83 5.20695 13.4331 3.9353 12.7426 4.226ZM20.3393 10.4878C21.0208 10.1446 22.9189 9.27354 23.0081 9.18323C22.3256 9.51323 20.4264 10.3936 20.3393 10.4878ZM37.0429 50.1213C35.7816 50.4925 38.6702 49.5399 39.4734 49.3175C39.5311 49.3311 37.1611 50.0788 37.0429 50.1213ZM5.97164 17.0985C6.88544 17.2523 15.4279 13.2791 16.5171 12.652C15.4283 13.2185 6.94107 17.1147 6.1325 16.9983C5.99097 17.0368 5.90344 17.1111 5.97164 17.0985ZM14.9631 2.86696C15.6947 2.45748 16.198 2.29994 16.2832 2.2588C16.4974 2.15604 16.7716 2.01947 17.0257 1.87852C17.1461 1.81182 17.2575 1.74573 17.3346 1.69504C17.3968 1.66203 17.4577 1.58133 17.29 1.76512C17.2373 1.82885 17.1616 1.92692 17.0816 2.09209C17.041 2.17815 17.0053 2.26258 16.967 2.40345C16.9221 2.57155 16.8945 2.78116 16.9108 3.0054C16.9223 3.44726 17.221 3.95479 17.3575 4.08655C17.5184 4.26999 17.6632 4.36904 17.7692 4.4331C17.9984 4.56138 18.0221 4.54815 18.0632 4.56371C18.0977 4.57254 18.1079 4.57237 18.1094 4.57082C18.0933 4.55983 18.0675 4.54499 18.1043 4.53443C18.1217 4.53805 18.1223 4.5402 18.0935 4.53299C18.0506 4.51672 18.0558 4.53894 17.8284 4.42061C17.7255 4.36205 17.5836 4.27012 17.4242 4.09847C17.3008 3.98427 16.9988 3.5294 16.9625 3.09536C16.9354 2.87758 16.9518 2.6686 16.9888 2.49817C17.0338 2.30462 17.0583 2.25662 17.0978 2.16138C17.1722 1.99471 17.2456 1.89303 17.2988 1.82501C17.4821 1.61438 17.4305 1.69584 17.3868 1.71748C17.3379 1.75233 17.2279 1.82122 17.1364 1.87426C16.7096 2.12199 16.1567 2.39168 15.7032 2.60702C14.7847 3.03921 14.2266 3.27655 14.9631 2.86696ZM21.0586 10.4719C23.8534 9.08455 18.4334 11.6479 19.1703 11.3691C19.2177 11.35 20.7703 10.6144 21.0586 10.4719ZM4.65041 17.3122C4.58808 17.3196 4.41678 17.3335 4.19259 17.3318C3.95583 17.3257 3.70259 17.3276 3.21834 17.2146C2.80126 17.1116 2.10213 16.8635 1.53698 16.1952C1.26552 15.8793 1.04804 15.4528 0.942043 15.0806C0.840214 14.7361 0.797813 14.3851 0.797577 14.0405C0.933785 10.9949 3.182 9.43106 4.63108 8.29729C6.20331 7.16507 7.57422 6.45444 8.05195 6.18703C6.88286 6.95114 5.85654 7.41953 4.26902 8.61885C3.83416 8.96073 3.9785 8.90453 3.93175 8.94089C3.20545 9.55574 3.72236 9.0499 3.26502 9.45582C3.2434 9.6357 1.06874 10.851 0.860508 14.0405C0.864738 14.4631 0.910209 14.854 1.09691 15.337C1.29195 15.8383 1.6461 16.2962 2.05008 16.6002C2.24931 16.7529 2.45909 16.8719 2.65161 16.9591C2.82421 17.0374 2.99023 17.0949 3.14656 17.1386C3.462 17.2265 3.73247 17.2579 3.91608 17.2738C4.72406 17.3207 4.95605 17.2605 4.65041 17.3122ZM15.3732 2.6261C15.519 2.54124 16.1999 2.22549 16.9124 1.83191C17.082 1.73739 17.255 1.63002 17.3173 1.58217C17.3422 1.57137 17.366 1.51274 17.1771 1.73243C17.1233 1.80089 17.0525 1.899 16.978 2.05406C16.9411 2.13159 16.9038 2.22367 16.8719 2.33266C16.828 2.48213 16.7934 2.67374 16.7947 2.88465C16.7837 3.30473 16.9872 3.81278 17.193 4.06389C17.3574 4.27993 17.5245 4.41158 17.6527 4.49655C17.9301 4.6682 17.9862 4.66059 18.0344 4.68126C18.08 4.69502 18.0917 4.69605 18.0805 4.69454C18.0614 4.69167 18.0041 4.68425 17.9177 4.67819C17.7464 4.66655 17.5802 4.66302 17.3521 4.66327C16.6028 4.66441 16.0767 4.75725 16.0164 4.76203C15.4522 4.84516 16.1719 4.61701 17.3521 4.60853C17.5941 4.60802 17.7599 4.6116 17.9426 4.62533C18.0284 4.63207 18.0819 4.64008 18.0948 4.64253C18.097 4.64268 18.0736 4.63926 18.0115 4.61818C17.9831 4.60277 17.7727 4.55917 17.4552 4.27607C17.3768 4.20384 17.293 4.11388 17.2124 4.00329C17.1078 3.86139 16.9993 3.6618 16.9339 3.44956C16.7908 3.02368 16.8516 2.53298 16.9353 2.29961C17.0756 1.88851 17.2352 1.74376 17.2927 1.67502C17.3918 1.57529 17.3654 1.60991 17.3271 1.6334C17.2308 1.69975 17.064 1.79746 16.8794 1.89663C16.1571 2.27949 15.487 2.5746 15.3732 2.6261ZM5.77679 17.2495C5.40939 17.3327 4.66557 17.6044 3.32075 17.3703C2.66835 17.2695 1.58689 16.6932 1.13919 15.8443C0.657421 14.9471 0.705166 14.4556 0.690483 14.0405C0.720917 13.47 0.745998 13.3458 0.732334 14.0405C0.776954 14.434 0.658268 14.9899 1.38536 16.0776C1.61052 16.4955 2.75677 17.3176 3.67297 17.3697C4.52069 17.4828 5.25405 17.3625 5.77679 17.2495ZM20.8072 10.7168C20.9478 10.6472 23.8786 9.2616 23.9154 9.21023C23.4862 9.38423 19.2218 11.4479 20.8072 10.7168ZM19.3451 11.5721C19.4159 11.5364 18.6962 11.811 20.0755 11.1435C20.1907 11.089 20.4369 11.0521 22.1466 10.1915C22.4932 10.0172 23.0113 9.71076 22.9708 9.72659C21.1288 10.4613 15.8129 13.3598 19.3451 11.5721ZM15.4403 2.52362C15.1474 2.62227 15.786 2.22 16.3507 1.99345C16.5996 1.89101 16.1994 2.16816 15.4403 2.52362ZM30.1039 6.55152C28.4109 7.24697 33.7916 5.25703 34.0399 5.28685C33.8624 5.23914 30.2798 6.43702 30.1039 6.55152ZM39.7611 48.775C39.7596 48.7754 39.7582 48.7759 39.7568 48.7763C41.2565 48.3135 40.3449 48.656 40.4166 48.6354C43.5722 47.6694 42.6629 47.8116 43.1374 47.634C44.0883 47.2123 44.0624 47.4319 45.4636 46.6271C43.0734 47.9193 45.3064 46.7929 45.3721 46.7911C45.8494 46.8789 41.8774 48.2558 40.3343 48.7091C40.1324 48.7825 41.6626 48.3494 41.1449 48.5384C39.4984 49.1393 33.8399 50.5763 39.7611 48.775ZM16.7547 1.77495C16.818 1.73306 16.9458 1.65748 17.0579 1.58605C17.1136 1.5509 17.1884 1.5017 17.2206 1.47745C17.2506 1.46026 17.2798 1.41222 17.1277 1.57086C17.0753 1.62999 17.0004 1.71846 16.9109 1.8757C16.8259 2.05224 16.7108 2.1903 16.6569 2.74939C16.5994 3.24723 16.8786 3.94245 17.12 4.19971C17.3321 4.45997 17.5379 4.59689 17.6824 4.67953C17.8362 4.76456 17.9082 4.78549 17.9469 4.79998C17.9911 4.81516 18.0205 4.82285 18.038 4.82712C18.0744 4.83542 18.0542 4.83003 18.0331 4.82729C17.9082 4.80908 17.6553 4.79447 17.3521 4.79205C16.214 4.77576 15.3797 4.98649 15.9492 4.83876C16.0169 4.82484 16.5962 4.71533 17.3521 4.71567C17.5569 4.71514 17.7234 4.71943 17.859 4.72783C18.0129 4.73325 18.161 4.77091 18.0149 4.73425C17.9655 4.71609 17.939 4.7206 17.7356 4.614C17.6435 4.56286 17.5278 4.48922 17.3968 4.37177C17.26 4.23967 17.145 4.14456 16.9572 3.79787C16.5849 3.17098 16.7996 2.2167 16.8973 2.0859C17.0183 1.81456 17.1285 1.69302 17.1925 1.61874C17.3715 1.43749 17.2744 1.54076 17.2079 1.57317C17.0401 1.67614 16.8336 1.77982 16.7374 1.82169C16.6408 1.86327 16.6369 1.8534 16.7547 1.77495ZM46.7804 13.4499C47.068 13.0886 46.9047 13.2585 46.464 13.6716C46.0911 14.0211 45.377 14.6101 45.2098 14.7672C45.0216 14.9555 46.5068 13.8196 46.7804 13.4499ZM28.9548 25.138C27.5943 25.9701 26.2443 27.0311 27.9429 25.9699C28.124 25.8568 29.127 25.0688 28.9548 25.138ZM25.6448 17.9608C24.1039 18.6547 24.2579 18.7365 25.3625 18.1743C25.7526 17.9764 25.6934 17.939 25.6448 17.9608ZM35.665 21.3038C35.802 21.2126 37.3808 20.1375 37.3081 20.1501C36.6908 20.5319 34.7661 21.8782 35.665 21.3038ZM26.1143 17.7018C25.231 18.1751 26.8191 17.4888 27.8642 16.8575C27.3151 17.1397 26.2055 17.6527 26.1143 17.7018ZM9.56475 16.3603C10.3645 15.9895 12.5948 15.0133 13.8263 14.4098C14.0174 14.4127 10.5319 15.9882 9.56475 16.3603ZM34.8119 21.6752C33.5608 22.5096 36.3115 20.8618 36.0359 20.9474C35.9888 20.9731 34.8642 21.6409 34.8119 21.6752ZM25.3894 19.1313C26.34 18.5614 23.2225 20.1938 24.1103 19.7993C24.1527 19.78 25.34 19.1613 25.3894 19.1313ZM11.6206 26.2575C12.4185 25.9302 15.694 24.2986 14.3992 24.8916C14.2145 24.986 11.6797 26.1977 11.6206 26.2575ZM43.1985 47.5521C42.802 47.6414 45.0039 46.7434 45.2178 46.5904C45.361 46.5464 43.7817 47.4603 43.1985 47.5521ZM15.9043 23.1298C15.1359 23.5735 13.1578 24.7396 12.8218 25.005C13.7583 24.3983 16.1992 23.0487 15.9043 23.1298ZM40.5996 17.9941C39.4373 18.6692 37.5963 19.8474 38.1097 19.6508C40.1952 18.3009 37.7983 19.7509 40.5996 17.9941ZM31.1002 15.1228C30.4692 15.427 30.0358 15.759 30.1094 15.7281C30.8082 15.4354 31.7408 14.8525 31.1002 15.1228ZM21.1677 31.7502C21.2298 31.7627 23.0278 30.4405 22.7714 30.5892C22.681 30.6436 21.1253 31.7369 21.1677 31.7502ZM35.8869 5.1301C36.7565 5.01346 34.1378 5.52645 33.2799 5.79305C32.8609 5.81428 35.818 5.07395 35.8869 5.1301ZM46.8957 6.39848C46.8793 6.39006 46.8866 6.3746 46.7861 6.47589C46.6655 6.59496 46.5147 6.73198 46.2851 6.92074C45.8677 7.26014 45.4908 7.5426 45.984 7.22504C46.0862 7.16 46.4515 6.88173 46.6511 6.68872C46.8801 6.47169 46.9136 6.39033 46.8957 6.39848ZM21.3236 21.4968C23.3773 20.3207 14.5849 24.9141 16.9339 23.7821C17.1132 23.7086 21.1437 21.6092 21.3236 21.4968ZM6.1568 28.4196C6.38093 28.3701 6.45316 28.4115 6.23081 28.5142C6.12218 28.5639 5.88067 28.6428 5.55475 28.7103C5.38956 28.7442 5.19769 28.7763 4.97451 28.7993C4.73351 28.8243 4.38469 28.846 4.01131 28.8228C3.81027 28.8078 4.18533 28.8149 4.54056 28.7753C4.92637 28.7354 5.16649 28.6768 5.05382 28.6861C5.04584 28.6748 4.46701 28.7945 3.5672 28.6934C2.96675 28.5919 2.30153 28.5271 1.36164 27.6985C0.461058 26.8281 0.272372 25.8006 0.272422 25.0405C0.363757 23.2032 1.06233 22.542 1.08408 22.4046C1.23876 22.146 0.992129 22.4005 1.14363 22.1499C1.27508 21.7526 3.28963 19.7326 4.32342 19.0262C6.27407 17.5665 6.43212 17.4733 6.60488 17.342C7.06271 17.0409 7.88898 16.5659 8.8251 16.0098C13.6165 13.1342 21.0844 9.52851 24.9911 7.79747C21.5339 9.39579 18.2758 11.019 14.874 12.7938C15.8092 12.1467 9.91133 15.5379 13.3598 13.532C12.7495 13.8755 10.4688 15.066 7.77444 16.7388C6.46248 17.5605 4.99184 18.5331 3.6378 19.6665C2.37541 20.8986 0.635619 21.8473 0.319785 25.0405C0.322722 25.6522 0.437629 26.3067 0.845652 26.9789C1.25356 27.6783 2.02299 28.1807 2.46147 28.3466C3.52711 28.7494 4.05844 28.6654 4.55716 28.6605C5.47304 28.5967 5.90262 28.4684 6.15183 28.4207C6.15349 28.4203 6.15515 28.4199 6.1568 28.4196ZM23.4894 28.3576C24.2982 27.7771 19.9545 30.4294 19.6414 30.7312C20.2124 30.3922 23.3904 28.4257 23.4894 28.3576ZM43.0182 15.9256C43.3754 15.6366 43.7022 15.2892 45.4495 13.9376C45.4511 13.9363 45.4526 13.9349 45.4542 13.9336C45.9515 13.5292 45.4279 14.0354 45.5228 13.9692C45.6103 13.9243 46.943 12.7559 45.8661 13.7894C43.94 15.4419 45.6358 13.8608 44.564 14.7264C44.5293 14.7534 44.3742 14.8817 44.1454 15.0655C43.9449 15.2279 43.679 15.4398 43.4056 15.6529C42.8415 16.0924 42.3394 16.4705 42.4078 16.434C42.4211 16.4285 43.0812 15.9404 43.2069 15.857C43.6481 15.5716 43.4677 15.7598 43.529 15.7182C43.7201 15.6665 47.1097 12.7628 46.9061 12.7639C46.9233 12.7423 46.8671 12.876 46.5519 13.2246C46.4701 13.3146 46.3654 13.424 46.242 13.5455C46.1395 13.6471 46.0201 13.7608 45.8837 13.8855C45.7474 14.0102 45.594 14.1458 45.4249 14.2901C45.2716 14.4212 45.1222 14.5458 44.9554 14.6816C43.6013 15.7831 42.0425 16.847 41.9227 16.9254C41.7691 17.022 41.7589 16.8713 41.5955 16.9676C41.5049 17.033 39.0871 18.6916 38.7656 18.8751C38.6707 18.9321 38.5971 18.9749 38.5429 19.0061C38.9461 18.7988 36.6694 20.243 36.7188 20.1541C36.7471 20.1173 38.3131 19.1373 38.3734 19.1C38.3987 19.0854 38.4209 19.0733 38.4414 19.0617C38.1098 19.2513 43.2694 15.8018 42.1067 16.4849C43.4968 15.4596 41.9609 16.7233 43.0182 15.9256ZM47.9072 15.2346C47.9239 15.2219 47.8953 15.2084 47.8286 15.1735C47.9846 15.2202 47.9141 15.1854 47.7353 15.2088C47.5354 15.2313 47.3121 15.2755 46.9864 15.3675C46.4107 15.5306 45.6927 15.8125 44.9551 16.1524C43.508 16.8191 41.9479 17.7004 40.4232 18.6446C39.6541 19.1247 40.5819 18.6403 39.569 19.2529C38.7416 19.7566 37.8155 20.2776 38.24 19.9771C38.332 19.9083 40.0105 18.8803 40.8467 18.3707C43.271 16.9012 42.6388 17.2276 42.7754 17.1368C42.9236 17.0459 44.4809 16.2561 45.3234 15.8933C46.0455 15.57 46.6562 15.3401 47.1654 15.2051C47.42 15.1381 47.625 15.1006 47.793 15.0884C47.9401 15.0707 48.0023 15.1235 47.7796 15.043C47.7078 15.0108 47.4969 14.9207 47.2383 14.6304C46.9537 14.3541 46.6924 13.6209 46.7443 13.2211C46.7634 12.8767 46.8532 12.7139 46.857 12.6961C46.863 12.6789 46.8326 12.73 46.7511 12.8285C46.9974 12.436 46.6155 12.8896 46.6502 13.4331C46.6564 13.7302 46.7176 14.0762 46.9493 14.4648C47.1592 14.8293 47.5361 15.1127 47.7197 15.1827C47.8242 15.2303 47.9323 15.2427 47.9072 15.2346ZM37.7601 12.8286C37.6591 12.9265 35.816 13.8203 35.1374 14.1855C35.2252 14.0865 37.0766 13.1749 37.7601 12.8286ZM32.406 43.9144C32.9084 43.5013 28.8296 46.1156 29.9353 45.4743C30.1829 45.331 31.8918 44.2457 32.406 43.9144ZM13.0873 55.0949C12.7518 55.228 13.2665 55.0677 13.8863 54.8194C14.4635 54.5912 15.1042 54.2913 15.0935 54.2645C15.0863 54.2639 13.1989 55.0724 13.0873 55.0949ZM14.6698 36.6557C14.5785 36.7243 12.9759 37.7152 12.9422 37.7238C11.875 38.324 16.98 35.0999 14.6698 36.6557ZM23.9867 37.57C22.0706 38.7687 27.9234 35.3047 26.107 36.3153C26.0177 36.3651 24.0798 37.5116 23.9867 37.57ZM32.0673 32.7127C31.5998 33.0017 29.5522 34.2071 29.5304 34.2456C29.5142 34.2993 31.861 32.9135 32.0673 32.7127ZM31.3981 14.6638C31.1273 14.7042 33.9901 13.3635 34.9739 12.8618C35.2428 12.823 32.3741 14.1716 31.3981 14.6638ZM13.462 24.0582C25.3195 17.3149 22.7545 18.8225 12.7751 24.5266C12.7322 24.4911 12.7147 24.5179 13.462 24.0582ZM28.7733 15.9037C28.3564 16.1698 26.9902 16.8311 26.0634 17.2925C26.2157 17.1732 28.1061 16.244 28.7733 15.9037ZM37.2962 40.9273C36.6306 41.4173 33.4819 43.3359 34.0174 42.9606C34.1482 42.8637 37.5209 40.7356 37.2962 40.9273ZM13.7193 37.3478C14.0901 37.2461 10.367 39.4157 9.98724 39.5031C8.77492 40.0863 13.562 37.5621 13.7193 37.3478ZM46.5762 6.1971C46.5563 6.21632 46.5229 6.25635 46.474 6.3535C46.4256 6.46538 46.3633 6.55779 46.3128 6.93248C46.2646 7.26664 46.3408 7.81966 46.5488 8.20254C46.7425 8.58494 47.0143 8.83156 47.1721 8.94054C47.4108 9.1093 47.6183 9.16211 47.6775 9.17256C47.7344 9.18263 47.7116 9.17231 47.6264 9.17316C47.4907 9.16953 47.1484 9.21262 46.9085 9.26413C47.0168 9.22221 47.3441 9.1533 47.5413 9.13884C47.6343 9.12909 47.7397 9.13524 47.7091 9.13288C47.7063 9.13114 47.4934 9.10952 47.1969 8.905C47.0595 8.8099 46.8283 8.61123 46.6371 8.28315C46.4485 7.98472 46.3096 7.4498 46.3326 7.09064C46.3498 6.69905 46.427 6.52426 46.4717 6.40349C46.5214 6.28286 46.5583 6.22558 46.5762 6.1971ZM39.8749 10.2751C39.9681 10.2268 41.4976 9.41901 41.5746 9.37643C42.885 8.74766 38.4628 11.0833 39.8749 10.2751ZM37.4567 48.8568C37.5261 48.8313 38.8362 48.4269 38.8788 48.4162C40.0734 48.1057 36.1062 49.3374 37.4567 48.8568Z" fill="#A57F7F"/>
</svg>
